<svg xmlns="http://www.w3.org/2000/svg" viewBox="0 0 119.5 58.94"><defs><style>.cls-1{fill:#1d1d1b;}.cls-2{fill:#010101;}</style></defs><title>Asset 14</title><g id="Layer_2" data-name="Layer 2"><g id="Crop_Marks" data-name="Crop Marks"><path class="cls-1" d="M110,46V44.2h-4.63V46h-4.66V44.2H96.16V46H91.45V44.2H86.86V46h-4.7V44.2H77.61V46H72.87V44.2H68.24V46h4.59v1.85H68.24v1.84h4.63V48h4.74v1.77h4.55V48h4.7v1.77h4.56V48h4.74v1.77h4.59V48h4.66v1.77H110V48h-4.59V46ZM82.16,47.89H77.53V46.12h4.63Zm9.29,0H86.86V46.12h4.59Zm9.3,0H96.16V46.12h4.59ZM110,46V44.2h-4.63V46h-4.66V44.2H96.16V46H91.45V44.2H86.86V46h-4.7V44.2H77.61V46H72.87V44.2H68.24V46h4.59v1.85H68.24v1.84h4.63V48h4.74v1.77h4.55V48h4.7v1.77h4.56V48h4.74v1.77h4.59V48h4.66v1.77H110V48h-4.59V46ZM82.16,47.89H77.53V46.12h4.63Zm9.29,0H86.86V46.12h4.59Zm9.3,0H96.16V46.12h4.59ZM110,46V44.2h-4.63V46h-4.66V44.2H96.16V46H91.45V44.2H86.86V46h-4.7V44.2H77.61V46H72.87V44.2H68.24V46h4.59v1.85H68.24v1.84h4.63V48h4.74v1.77h4.55V48h4.7v1.77h4.56V48h4.74v1.77h4.59V48h4.66v1.77H110V48h-4.59V46ZM82.16,47.89H77.53V46.12h4.63Zm9.29,0H86.86V46.12h4.59Zm9.3,0H96.16V46.12h4.59ZM110,46V44.2h-4.63V46h-4.66V44.2H96.16V46H91.45V44.2H86.86V46h-4.7V44.2H77.61V46H72.87V44.2H68.24V46h4.59v1.85H68.24v1.84h4.63V48h4.74v1.77h4.55V48h4.7v1.77h4.56V48h4.74v1.77h4.59V48h4.66v1.77H110V48h-4.59V46ZM82.16,47.89H77.53V46.12h4.63Zm9.29,0H86.86V46.12h4.59Zm9.3,0H96.16V46.12h4.59ZM110,46V44.2h-4.63V46h-4.66V44.2H96.16V46H91.45V44.2H86.86V46h-4.7V44.2H77.61V46H72.87V44.2H68.24V46h4.59v1.85H68.24v1.84h4.63V48h4.74v1.77h4.55V48h4.7v1.77h4.56V48h4.74v1.77h4.59V48h4.66v1.77H110V48h-4.59V46ZM82.16,47.89H77.53V46.12h4.63Zm9.29,0H86.86V46.12h4.59Zm9.3,0H96.16V46.12h4.59ZM110,46V44.2h-4.63V46h-4.66V44.2H96.16V46H91.45V44.2H86.86V46h-4.7V44.2H77.61V46H72.87V44.2H68.24V46h4.59v1.85H68.24v1.84h4.63V48h4.74v1.77h4.55V48h4.7v1.77h4.56V48h4.74v1.77h4.59V48h4.66v1.77H110V48h-4.59V46ZM82.16,47.89H77.53V46.12h4.63Zm9.29,0H86.86V46.12h4.59Zm9.3,0H96.16V46.12h4.59Zm16.36-2.3L114.44,40H64.29l-2.67,5.57a17.9,17.9,0,0,0-2,7.79v4.29h59.41V53.38A17.7,17.7,0,0,0,117.11,45.59Zm-3.89-3.72,2.29,5a18.18,18.18,0,0,1,1.72,7.55v1.39H61.51V52.2A13.31,13.31,0,0,1,63,47l2.36-5.09ZM72.87,48h4.74v1.77h4.55V48h4.7v1.77h4.56V48h4.74v1.77h4.59V48h4.66v1.77H110V48h-4.59V46H110V44.2h-4.63V46h-4.66V44.2H96.16V46H91.45V44.2H86.86V46h-4.7V44.2H77.61V46H72.87V44.2H68.24V46h4.59v1.85H68.24v1.84h4.63Zm23.29-1.84h4.59v1.77H96.16Zm-9.3,0h4.59v1.77H86.86Zm-9.33,0h4.63v1.77H77.53ZM110,46V44.2h-4.63V46h-4.66V44.2H96.16V46H91.45V44.2H86.86V46h-4.7V44.2H77.61V46H72.87V44.2H68.24V46h4.59v1.85H68.24v1.84h4.63V48h4.74v1.77h4.55V48h4.7v1.77h4.56V48h4.74v1.77h4.59V48h4.66v1.77H110V48h-4.59V46ZM82.16,47.89H77.53V46.12h4.63Zm9.29,0H86.86V46.12h4.59Zm9.3,0H96.16V46.12h4.59ZM110,46V44.2h-4.63V46h-4.66V44.2H96.16V46H91.45V44.2H86.86V46h-4.7V44.2H77.61V46H72.87V44.2H68.24V46h4.59v1.85H68.24v1.84h4.63V48h4.74v1.77h4.55V48h4.7v1.77h4.56V48h4.74v1.77h4.59V48h4.66v1.77H110V48h-4.59V46ZM82.16,47.89H77.53V46.12h4.63Zm9.29,0H86.86V46.12h4.59Zm9.3,0H96.16V46.12h4.59ZM110,46V44.2h-4.63V46h-4.66V44.2H96.16V46H91.45V44.2H86.86V46h-4.7V44.2H77.61V46H72.87V44.2H68.24V46h4.59v1.85H68.24v1.84h4.63V48h4.74v1.77h4.55V48h4.7v1.77h4.56V48h4.74v1.77h4.59V48h4.66v1.77H110V48h-4.59V46ZM82.16,47.89H77.53V46.12h4.63Zm9.29,0H86.86V46.12h4.59Zm9.3,0H96.16V46.12h4.59ZM110,46V44.2h-4.63V46h-4.66V44.2H96.16V46H91.45V44.2H86.86V46h-4.7V44.2H77.61V46H72.87V44.2H68.24V46h4.59v1.85H68.24v1.84h4.63V48h4.74v1.77h4.55V48h4.7v1.77h4.56V48h4.74v1.77h4.59V48h4.66v1.77H110V48h-4.59V46ZM82.16,47.89H77.53V46.12h4.63Zm9.29,0H86.86V46.12h4.59Zm9.3,0H96.16V46.12h4.59ZM110,46V44.2h-4.63V46h-4.66V44.2H96.16V46H91.45V44.2H86.86V46h-4.7V44.2H77.61V46H72.87V44.2H68.24V46h4.59v1.85H68.24v1.84h4.63V48h4.74v1.77h4.55V48h4.7v1.77h4.56V48h4.74v1.77h4.59V48h4.66v1.77H110V48h-4.59V46ZM82.16,47.89H77.53V46.12h4.63Zm9.29,0H86.86V46.12h4.59Zm9.3,0H96.16V46.12h4.59ZM110,46V44.2h-4.63V46h-4.66V44.2H96.16V46H91.45V44.2H86.86V46h-4.7V44.2H77.61V46H72.87V44.2H68.24V46h4.59v1.85H68.24v1.84h4.63V48h4.74v1.77h4.55V48h4.7v1.77h4.56V48h4.74v1.77h4.59V48h4.66v1.77H110V48h-4.59V46ZM82.16,47.89H77.53V46.12h4.63Zm9.29,0H86.86V46.12h4.59Zm9.3,0H96.16V46.12h4.59Z"/><path class="cls-1" d="M110.47,46.48V43.76H105v1.85h-3.8V43.76H95.72v1.85H91.89V43.76H86.43v1.85H82.59V43.76H77.17v1.85H73.3V43.76H67.81v2.72H72.4v1H67.81v2.71H73.3V48.4h3.87v1.76h5.42V48.4h3.84v1.76h5.42V48.4h3.87v1.76h5.46V48.4H105v1.76h5.49V47.53h-4.59V46.48Zm-41.8-.87v-1h3.76v1Zm0,2.71h3.76v1H68.67ZM105,46.48v1.05h-3.84V46.48Zm-8.43-1.85h3.72v1H96.59Zm3.72,1.92v.9H96.59v-.9Zm-4.59-.07v1.05H91.89V46.48ZM87.3,44.63H91v1H87.3ZM91,46.55v.9H87.3v-.9Zm-4.59-.07v1.05H82.59V46.48ZM78,44.63h3.69v1H78Zm3.69,1.92v.9H78v-.9Zm-4.63-.07v1.05H73.26V46.48Zm4.63,2.81H78v-1h3.69Zm9.25,0H87.3v-1H91Zm9.33,0H96.59v-1h3.72Zm9.3,0h-3.76V48.4h3.76Zm0-4.66v1h-3.76v-1Zm.86,1.85V43.76H105v1.85h-3.8V43.76H95.72v1.85H91.89V43.76H86.43v1.85H82.59V43.76H77.17v1.85H73.3V43.76H67.81v2.72H72.4v1H67.81v2.71H73.3V48.4h3.87v1.76h5.42V48.4h3.84v1.76h5.42V48.4h3.87v1.76h5.46V48.4H105v1.76h5.49V47.53h-4.59V46.48Zm-41.8-.87v-1h3.76v1Zm0,2.71h3.76v1H68.67ZM105,46.48v1.05h-3.84V46.48Zm-8.43-1.85h3.72v1H96.59Zm3.72,1.92v.9H96.59v-.9Zm-4.59-.07v1.05H91.89V46.48ZM87.3,44.63H91v1H87.3ZM91,46.55v.9H87.3v-.9Zm-4.59-.07v1.05H82.59V46.48ZM78,44.63h3.69v1H78Zm3.69,1.92v.9H78v-.9Zm-4.63-.07v1.05H73.26V46.48Zm4.63,2.81H78v-1h3.69Zm9.25,0H87.3v-1H91Zm9.33,0H96.59v-1h3.72Zm9.3,0h-3.76V48.4h3.76Zm0-4.66v1h-3.76v-1Zm.86,1.85V43.76H105v1.85h-3.8V43.76H95.72v1.85H91.89V43.76H86.43v1.85H82.59V43.76H77.17v1.85H73.3V43.76H67.81v2.72H72.4v1H67.81v2.71H73.3V48.4h3.87v1.76h5.42V48.4h3.84v1.76h5.42V48.4h3.87v1.76h5.46V48.4H105v1.76h5.49V47.53h-4.59V46.48Zm-41.8-.87v-1h3.76v1Zm0,2.71h3.76v1H68.67ZM105,46.48v1.05h-3.84V46.48Zm-8.43-1.85h3.72v1H96.59Zm3.72,1.92v.9H96.59v-.9Zm-4.59-.07v1.05H91.89V46.48ZM87.3,44.63H91v1H87.3ZM91,46.55v.9H87.3v-.9Zm-4.59-.07v1.05H82.59V46.48ZM78,44.63h3.69v1H78Zm3.69,1.92v.9H78v-.9Zm-4.63-.07v1.05H73.26V46.48Zm4.63,2.81H78v-1h3.69Zm9.25,0H87.3v-1H91Zm9.33,0H96.59v-1h3.72Zm9.3,0h-3.76V48.4h3.76Zm0-4.66v1h-3.76v-1Zm.86,1.85V43.76H105v1.85h-3.8V43.76H95.72v1.85H91.89V43.76H86.43v1.85H82.59V43.76H77.17v1.85H73.3V43.76H67.81v2.72H72.4v1H67.81v2.71H73.3V48.4h3.87v1.76h5.42V48.4h3.84v1.76h5.42V48.4h3.87v1.76h5.46V48.4H105v1.76h5.49V47.53h-4.59V46.48Zm-41.8-.87v-1h3.76v1Zm0,2.71h3.76v1H68.67ZM105,46.48v1.05h-3.84V46.48Zm-8.43-1.85h3.72v1H96.59Zm3.72,1.92v.9H96.59v-.9Zm-4.59-.07v1.05H91.89V46.48ZM87.3,44.63H91v1H87.3ZM91,46.55v.9H87.3v-.9Zm-4.59-.07v1.05H82.59V46.48ZM78,44.63h3.69v1H78Zm3.69,1.92v.9H78v-.9Zm-4.63-.07v1.05H73.26V46.48Zm4.63,2.81H78v-1h3.69Zm9.25,0H87.3v-1H91Zm9.33,0H96.59v-1h3.72Zm9.3,0h-3.76V48.4h3.76Zm0-4.66v1h-3.76v-1Zm.86,1.85V43.76H105v1.85h-3.8V43.76H95.72v1.85H91.89V43.76H86.43v1.85H82.59V43.76H77.17v1.85H73.3V43.76H67.81v2.72H72.4v1H67.81v2.71H73.3V48.4h3.87v1.76h5.42V48.4h3.84v1.76h5.42V48.4h3.87v1.76h5.46V48.4H105v1.76h5.49V47.53h-4.59V46.48Zm-41.8-.87v-1h3.76v1Zm0,2.71h3.76v1H68.67ZM105,46.48v1.05h-3.84V46.48Zm-8.43-1.85h3.72v1H96.59Zm3.72,1.92v.9H96.59v-.9Zm-4.59-.07v1.05H91.89V46.48ZM87.3,44.63H91v1H87.3ZM91,46.55v.9H87.3v-.9Zm-4.59-.07v1.05H82.59V46.48ZM78,44.63h3.69v1H78Zm3.69,1.92v.9H78v-.9Zm-4.63-.07v1.05H73.26V46.48Zm4.63,2.81H78v-1h3.69Zm9.25,0H87.3v-1H91Zm9.33,0H96.59v-1h3.72Zm9.3,0h-3.76V48.4h3.76Zm0-4.66v1h-3.76v-1Zm.86,1.85V43.76H105v1.85h-3.8V43.76H95.72v1.85H91.89V43.76H86.43v1.85H82.59V43.76H77.17v1.85H73.3V43.76H67.81v2.72H72.4v1H67.81v2.71H73.3V48.4h3.87v1.76h5.42V48.4h3.84v1.76h5.42V48.4h3.87v1.76h5.46V48.4H105v1.76h5.49V47.53h-4.59V46.48Zm-41.8-.87v-1h3.76v1Zm0,2.71h3.76v1H68.67ZM105,46.48v1.05h-3.84V46.48Zm-8.43-1.85h3.72v1H96.59Zm3.72,1.92v.9H96.59v-.9Zm-4.59-.07v1.05H91.89V46.48ZM87.3,44.63H91v1H87.3ZM91,46.55v.9H87.3v-.9Zm-4.59-.07v1.05H82.59V46.48ZM78,44.63h3.69v1H78Zm3.69,1.92v.9H78v-.9Zm-4.63-.07v1.05H73.26V46.48Zm4.63,2.81H78v-1h3.69Zm9.25,0H87.3v-1H91Zm9.33,0H96.59v-1h3.72Zm9.3,0h-3.76V48.4h3.76Zm0-4.66v1h-3.76v-1Zm6.29,2.07-2.4-5.27H65.08l-2.47,5.35a13.55,13.55,0,0,0-1.54,5.42v4.06h56.59V54.43A18.53,18.53,0,0,0,115.9,46.7Zm.89,8.69H61.94V52.2a13.05,13.05,0,0,1,1.46-5.06l2.24-4.84H113l2.16,4.76a17.67,17.67,0,0,1,1.68,7.37ZM105,45.61h-3.8V43.76H95.72v1.85H91.89V43.76H86.43v1.85H82.59V43.76H77.17v1.85H73.3V43.76H67.81v2.72H72.4v1H67.81v2.71H73.3V48.4h3.87v1.76h5.42V48.4h3.84v1.76h5.42V48.4h3.87v1.76h5.46V48.4H105v1.76h5.49V47.53h-4.59V46.48h4.59V43.76H105Zm4.63,2.79v.89h-3.76V48.4Zm0-2.79h-3.76v-1h3.76Zm-40.94,0v-1h3.76v1Zm0,2.71h3.76v1H68.67Zm27.92-3.69h3.72v1H96.59Zm3.72,1.92v.9H96.59v-.9Zm-4.59-.07v1.05H91.89V46.48ZM87.3,44.63H91v1H87.3ZM91,46.55v.9H87.3v-.9Zm-4.59-.07v1.05H82.59V46.48ZM78,44.63h3.69v1H78Zm3.69,1.92v.9H78v-.9Zm-4.63-.07v1.05H73.26V46.48Zm4.63,2.81H78v-1h3.69Zm9.25,0H87.3v-1H91Zm9.33,0H96.59v-1h3.72Zm.87-1.76V46.48H105v1.05Zm9.29-1.05V43.76H105v1.85h-3.8V43.76H95.72v1.85H91.89V43.76H86.43v1.85H82.59V43.76H77.17v1.85H73.3V43.76H67.81v2.72H72.4v1H67.81v2.71H73.3V48.4h3.87v1.76h5.42V48.4h3.84v1.76h5.42V48.4h3.87v1.76h5.46V48.4H105v1.76h5.49V47.53h-4.59V46.48Zm-41.8-.87v-1h3.76v1Zm0,2.71h3.76v1H68.67ZM105,46.48v1.05h-3.84V46.48Zm-8.43-1.85h3.72v1H96.59Zm3.72,1.92v.9H96.59v-.9Zm-4.59-.07v1.05H91.89V46.48ZM87.3,44.63H91v1H87.3ZM91,46.55v.9H87.3v-.9Zm-4.59-.07v1.05H82.59V46.48ZM78,44.63h3.69v1H78Zm3.69,1.92v.9H78v-.9Zm-4.63-.07v1.05H73.26V46.48Zm4.63,2.81H78v-1h3.69Zm9.25,0H87.3v-1H91Zm9.33,0H96.59v-1h3.72Zm9.3,0h-3.76V48.4h3.76Zm0-4.66v1h-3.76v-1Zm.86,1.85V43.76H105v1.85h-3.8V43.76H95.72v1.85H91.89V43.76H86.43v1.85H82.59V43.76H77.17v1.85H73.3V43.76H67.81v2.72H72.4v1H67.81v2.71H73.3V48.4h3.87v1.76h5.42V48.4h3.84v1.76h5.42V48.4h3.87v1.76h5.46V48.4H105v1.76h5.49V47.53h-4.59V46.48Zm-41.8-.87v-1h3.76v1Zm0,2.71h3.76v1H68.67ZM105,46.48v1.05h-3.84V46.48Zm-8.43-1.85h3.72v1H96.59Zm3.72,1.92v.9H96.59v-.9Zm-4.59-.07v1.05H91.89V46.48ZM87.3,44.63H91v1H87.3ZM91,46.55v.9H87.3v-.9Zm-4.59-.07v1.05H82.59V46.48ZM78,44.63h3.69v1H78Zm3.69,1.92v.9H78v-.9Zm-4.63-.07v1.05H73.26V46.48Zm4.63,2.81H78v-1h3.69Zm9.25,0H87.3v-1H91Zm9.33,0H96.59v-1h3.72Zm9.3,0h-3.76V48.4h3.76Zm0-4.66v1h-3.76v-1Zm.86,1.85V43.76H105v1.85h-3.8V43.76H95.72v1.85H91.89V43.76H86.43v1.85H82.59V43.76H77.17v1.85H73.3V43.76H67.81v2.72H72.4v1H67.81v2.71H73.3V48.4h3.87v1.76h5.42V48.4h3.84v1.76h5.42V48.4h3.87v1.76h5.46V48.4H105v1.76h5.49V47.53h-4.59V46.48Zm-41.8-.87v-1h3.76v1Zm0,2.71h3.76v1H68.67ZM105,46.48v1.05h-3.84V46.48Zm-8.43-1.85h3.72v1H96.59Zm3.72,1.92v.9H96.59v-.9Zm-4.59-.07v1.05H91.89V46.48ZM87.3,44.63H91v1H87.3ZM91,46.55v.9H87.3v-.9Zm-4.59-.07v1.05H82.59V46.48ZM78,44.63h3.69v1H78Zm3.69,1.92v.9H78v-.9Zm-4.63-.07v1.05H73.26V46.48Zm4.63,2.81H78v-1h3.69Zm9.25,0H87.3v-1H91Zm9.33,0H96.59v-1h3.72Zm9.3,0h-3.76V48.4h3.76Zm0-4.66v1h-3.76v-1Zm.86,1.85V43.76H105v1.85h-3.8V43.76H95.72v1.85H91.89V43.76H86.43v1.85H82.59V43.76H77.17v1.85H73.3V43.76H67.81v2.72H72.4v1H67.81v2.71H73.3V48.4h3.87v1.76h5.42V48.4h3.84v1.76h5.42V48.4h3.87v1.76h5.46V48.4H105v1.76h5.49V47.53h-4.59V46.48Zm-41.8-.87v-1h3.76v1Zm0,2.71h3.76v1H68.67ZM105,46.48v1.05h-3.84V46.48Zm-8.43-1.85h3.72v1H96.59Zm3.72,1.92v.9H96.59v-.9Zm-4.59-.07v1.05H91.89V46.48ZM87.3,44.63H91v1H87.3ZM91,46.55v.9H87.3v-.9Zm-4.59-.07v1.05H82.59V46.48ZM78,44.63h3.69v1H78Zm3.69,1.92v.9H78v-.9Zm-4.63-.07v1.05H73.26V46.48Zm4.63,2.81H78v-1h3.69Zm9.25,0H87.3v-1H91Zm9.33,0H96.59v-1h3.72Zm9.3,0h-3.76V48.4h3.76Zm0-4.66v1h-3.76v-1Zm.86,1.85V43.76H105v1.85h-3.8V43.76H95.72v1.85H91.89V43.76H86.43v1.85H82.59V43.76H77.17v1.85H73.3V43.76H67.81v2.72H72.4v1H67.81v2.71H73.3V48.4h3.87v1.76h5.42V48.4h3.84v1.76h5.42V48.4h3.87v1.76h5.46V48.4H105v1.76h5.49V47.53h-4.59V46.48Zm-41.8-.87v-1h3.76v1Zm0,2.71h3.76v1H68.67ZM105,46.48v1.05h-3.84V46.48Zm-8.43-1.85h3.72v1H96.59Zm3.72,1.92v.9H96.59v-.9Zm-4.59-.07v1.05H91.89V46.48ZM87.3,44.63H91v1H87.3ZM91,46.55v.9H87.3v-.9Zm-4.59-.07v1.05H82.59V46.48ZM78,44.63h3.69v1H78Zm3.69,1.92v.9H78v-.9Zm-4.63-.07v1.05H73.26V46.48Zm4.63,2.81H78v-1h3.69Zm9.25,0H87.3v-1H91Zm9.33,0H96.59v-1h3.72Zm9.3,0h-3.76V48.4h3.76Zm0-4.66v1h-3.76v-1Zm.86,1.85V43.76H105v1.85h-3.8V43.76H95.72v1.85H91.89V43.76H86.43v1.85H82.59V43.76H77.17v1.85H73.3V43.76H67.81v2.72H72.4v1H67.81v2.71H73.3V48.4h3.87v1.76h5.42V48.4h3.84v1.76h5.42V48.4h3.87v1.76h5.46V48.4H105v1.76h5.49V47.53h-4.59V46.48Zm-41.8-.87v-1h3.76v1Zm0,2.71h3.76v1H68.67ZM105,46.48v1.05h-3.84V46.48Zm-8.43-1.85h3.72v1H96.59Zm3.72,1.92v.9H96.59v-.9Zm-4.59-.07v1.05H91.89V46.48ZM87.3,44.63H91v1H87.3ZM91,46.55v.9H87.3v-.9Zm-4.59-.07v1.05H82.59V46.48ZM78,44.63h3.69v1H78Zm3.69,1.92v.9H78v-.9Zm-4.63-.07v1.05H73.26V46.48Zm4.63,2.81H78v-1h3.69Zm9.25,0H87.3v-1H91Zm9.33,0H96.59v-1h3.72Zm9.3,0h-3.76V48.4h3.76Zm0-4.66v1h-3.76v-1Zm.86,1.85V43.76H105v1.85h-3.8V43.76H95.72v1.85H91.89V43.76H86.43v1.85H82.59V43.76H77.17v1.85H73.3V43.76H67.81v2.72H72.4v1H67.81v2.71H73.3V48.4h3.87v1.76h5.42V48.4h3.84v1.76h5.42V48.4h3.87v1.76h5.46V48.4H105v1.76h5.49V47.53h-4.59V46.48Zm-41.8-.87v-1h3.76v1Zm0,2.71h3.76v1H68.67ZM105,46.48v1.05h-3.84V46.48Zm-8.43-1.85h3.72v1H96.59Zm3.72,1.92v.9H96.59v-.9Zm-4.59-.07v1.05H91.89V46.48ZM87.3,44.63H91v1H87.3ZM91,46.55v.9H87.3v-.9Zm-4.59-.07v1.05H82.59V46.48ZM78,44.63h3.69v1H78Zm3.69,1.92v.9H78v-.9Zm-4.63-.07v1.05H73.26V46.48Zm4.63,2.81H78v-1h3.69Zm9.25,0H87.3v-1H91Zm9.33,0H96.59v-1h3.72Zm9.3,0h-3.76V48.4h3.76Zm0-4.66v1h-3.76v-1Zm.86,1.85V43.76H105v1.85h-3.8V43.76H95.72v1.85H91.89V43.76H86.43v1.85H82.59V43.76H77.17v1.85H73.3V43.76H67.81v2.72H72.4v1H67.81v2.71H73.3V48.4h3.87v1.76h5.42V48.4h3.84v1.76h5.42V48.4h3.87v1.76h5.46V48.4H105v1.76h5.49V47.53h-4.59V46.48Zm-41.8-.87v-1h3.76v1Zm0,2.71h3.76v1H68.67ZM105,46.48v1.05h-3.84V46.48Zm-8.43-1.85h3.72v1H96.59Zm3.72,1.92v.9H96.59v-.9Zm-4.59-.07v1.05H91.89V46.48ZM87.3,44.63H91v1H87.3ZM91,46.55v.9H87.3v-.9Zm-4.59-.07v1.05H82.59V46.48ZM78,44.63h3.69v1H78Zm3.69,1.92v.9H78v-.9Zm-4.63-.07v1.05H73.26V46.48Zm4.63,2.81H78v-1h3.69Zm9.25,0H87.3v-1H91Zm9.33,0H96.59v-1h3.72Zm9.3,0h-3.76V48.4h3.76Zm0-4.66v1h-3.76v-1Zm6.29,2.07-2.4-5.27H65.08l-2.47,5.35a13.55,13.55,0,0,0-1.54,5.42v4.06h56.59V54.43A18.53,18.53,0,0,0,115.9,46.7Zm.89,8.69H61.94V52.2a13.05,13.05,0,0,1,1.46-5.06l2.24-4.84H113l2.16,4.76a17.67,17.67,0,0,1,1.68,7.37ZM105,45.61h-3.8V43.76H95.72v1.85H91.89V43.76H86.43v1.85H82.59V43.76H77.17v1.85H73.3V43.76H67.81v2.72H72.4v1H67.81v2.71H73.3V48.4h3.87v1.76h5.42V48.4h3.84v1.76h5.42V48.4h3.87v1.76h5.46V48.4H105v1.76h5.49V47.53h-4.59V46.48h4.59V43.76H105Zm4.63,2.79v.89h-3.76V48.4Zm0-2.79h-3.76v-1h3.76Zm-40.94,0v-1h3.76v1Zm0,2.71h3.76v1H68.67Zm27.92-3.69h3.72v1H96.59Zm3.72,1.92v.9H96.59v-.9Zm-4.59-.07v1.05H91.89V46.48ZM87.3,44.63H91v1H87.3ZM91,46.55v.9H87.3v-.9Zm-4.59-.07v1.05H82.59V46.48ZM78,44.63h3.69v1H78Zm3.69,1.92v.9H78v-.9Zm-4.63-.07v1.05H73.26V46.48Zm4.63,2.81H78v-1h3.69Zm9.25,0H87.3v-1H91Zm9.33,0H96.59v-1h3.72Zm.87-1.76V46.48H105v1.05Zm9.29-1.05V43.76H105v1.85h-3.8V43.76H95.72v1.85H91.89V43.76H86.43v1.85H82.59V43.76H77.17v1.85H73.3V43.76H67.81v2.72H72.4v1H67.81v2.71H73.3V48.4h3.87v1.76h5.42V48.4h3.84v1.76h5.42V48.4h3.87v1.76h5.46V48.4H105v1.76h5.49V47.53h-4.59V46.48Zm-41.8-.87v-1h3.76v1Zm0,2.71h3.76v1H68.67ZM105,46.48v1.05h-3.84V46.48Zm-8.43-1.85h3.72v1H96.59Zm3.72,1.92v.9H96.59v-.9Zm-4.59-.07v1.05H91.89V46.48ZM87.3,44.63H91v1H87.3ZM91,46.55v.9H87.3v-.9Zm-4.59-.07v1.05H82.59V46.48ZM78,44.63h3.69v1H78Zm3.69,1.92v.9H78v-.9Zm-4.63-.07v1.05H73.26V46.48Zm4.63,2.81H78v-1h3.69Zm9.25,0H87.3v-1H91Zm9.33,0H96.59v-1h3.72Zm9.3,0h-3.76V48.4h3.76Zm0-4.66v1h-3.76v-1Zm.86,1.85V43.76H105v1.85h-3.8V43.76H95.72v1.85H91.89V43.76H86.43v1.85H82.59V43.76H77.17v1.85H73.3V43.76H67.81v2.72H72.4v1H67.81v2.71H73.3V48.4h3.87v1.76h5.42V48.4h3.84v1.76h5.42V48.4h3.87v1.76h5.46V48.4H105v1.76h5.49V47.53h-4.59V46.48Zm-41.8-.87v-1h3.76v1Zm0,2.71h3.76v1H68.67ZM105,46.48v1.05h-3.84V46.48Zm-8.43-1.85h3.72v1H96.59Zm3.72,1.92v.9H96.59v-.9Zm-4.59-.07v1.05H91.89V46.48ZM87.3,44.63H91v1H87.3ZM91,46.55v.9H87.3v-.9Zm-4.59-.07v1.05H82.59V46.48ZM78,44.63h3.69v1H78Zm3.69,1.92v.9H78v-.9Zm-4.63-.07v1.05H73.26V46.48Zm4.63,2.81H78v-1h3.69Zm9.25,0H87.3v-1H91Zm9.33,0H96.59v-1h3.72Zm9.3,0h-3.76V48.4h3.76Zm0-4.66v1h-3.76v-1Zm.86,1.85V43.76H105v1.85h-3.8V43.76H95.72v1.85H91.89V43.76H86.43v1.85H82.59V43.76H77.17v1.85H73.3V43.76H67.81v2.72H72.4v1H67.81v2.71H73.3V48.4h3.87v1.76h5.42V48.4h3.84v1.76h5.42V48.4h3.87v1.76h5.46V48.4H105v1.76h5.49V47.53h-4.59V46.48Zm-41.8-.87v-1h3.76v1Zm0,2.71h3.76v1H68.67ZM105,46.48v1.05h-3.84V46.48Zm-8.43-1.85h3.72v1H96.59Zm3.72,1.92v.9H96.59v-.9Zm-4.59-.07v1.05H91.89V46.48ZM87.3,44.63H91v1H87.3ZM91,46.55v.9H87.3v-.9Zm-4.59-.07v1.05H82.59V46.48ZM78,44.63h3.69v1H78Zm3.69,1.92v.9H78v-.9Zm-4.63-.07v1.05H73.26V46.48Zm4.63,2.81H78v-1h3.69Zm9.25,0H87.3v-1H91Zm9.33,0H96.59v-1h3.72Zm9.3,0h-3.76V48.4h3.76Zm0-4.66v1h-3.76v-1Zm.86,1.85V43.76H105v1.85h-3.8V43.76H95.72v1.85H91.89V43.76H86.43v1.85H82.59V43.76H77.17v1.85H73.3V43.76H67.81v2.72H72.4v1H67.81v2.71H73.3V48.4h3.87v1.76h5.42V48.4h3.84v1.76h5.42V48.4h3.87v1.76h5.46V48.4H105v1.76h5.49V47.53h-4.59V46.48Zm-41.8-.87v-1h3.76v1Zm0,2.71h3.76v1H68.67ZM105,46.48v1.05h-3.84V46.48Zm-8.43-1.85h3.72v1H96.59Zm3.72,1.92v.9H96.59v-.9Zm-4.59-.07v1.05H91.89V46.48ZM87.3,44.63H91v1H87.3ZM91,46.55v.9H87.3v-.9Zm-4.59-.07v1.05H82.59V46.48ZM78,44.63h3.69v1H78Zm3.69,1.92v.9H78v-.9Zm-4.63-.07v1.05H73.26V46.48Zm4.63,2.81H78v-1h3.69Zm9.25,0H87.3v-1H91Zm9.33,0H96.59v-1h3.72Zm9.3,0h-3.76V48.4h3.76Zm0-4.66v1h-3.76v-1Zm.86,1.85V43.76H105v1.85h-3.8V43.76H95.72v1.85H91.89V43.76H86.43v1.85H82.59V43.76H77.17v1.85H73.3V43.76H67.81v2.72H72.4v1H67.81v2.71H73.3V48.4h3.87v1.76h5.42V48.4h3.84v1.76h5.42V48.4h3.87v1.76h5.46V48.4H105v1.76h5.49V47.53h-4.59V46.48Zm-41.8-.87v-1h3.76v1Zm0,2.71h3.76v1H68.67ZM105,46.48v1.05h-3.84V46.48Zm-8.43-1.85h3.72v1H96.59Zm3.72,1.92v.9H96.59v-.9Zm-4.59-.07v1.05H91.89V46.48ZM87.3,44.63H91v1H87.3ZM91,46.55v.9H87.3v-.9Zm-4.59-.07v1.05H82.59V46.48ZM78,44.63h3.69v1H78Zm3.69,1.92v.9H78v-.9Zm-4.63-.07v1.05H73.26V46.48Zm4.63,2.81H78v-1h3.69Zm9.25,0H87.3v-1H91Zm9.33,0H96.59v-1h3.72Zm9.3,0h-3.76V48.4h3.76Zm0-4.66v1h-3.76v-1Zm.86,1.85V43.76H105v1.85h-3.8V43.76H95.72v1.85H91.89V43.76H86.43v1.85H82.59V43.76H77.17v1.85H73.3V43.76H67.81v2.72H72.4v1H67.81v2.71H73.3V48.4h3.87v1.76h5.42V48.4h3.84v1.76h5.42V48.4h3.87v1.76h5.46V48.4H105v1.76h5.49V47.53h-4.59V46.48Zm-41.8-.87v-1h3.76v1Zm0,2.71h3.76v1H68.67ZM105,46.48v1.05h-3.84V46.48Zm-8.43-1.85h3.72v1H96.59Zm3.72,1.92v.9H96.59v-.9Zm-4.59-.07v1.05H91.89V46.48ZM87.3,44.63H91v1H87.3ZM91,46.55v.9H87.3v-.9Zm-4.59-.07v1.05H82.59V46.48ZM78,44.63h3.69v1H78Zm3.69,1.92v.9H78v-.9Zm-4.63-.07v1.05H73.26V46.48Zm4.63,2.81H78v-1h3.69Zm9.25,0H87.3v-1H91Zm9.33,0H96.59v-1h3.72Zm9.3,0h-3.76V48.4h3.76Zm0-4.66v1h-3.76v-1Zm.86,1.85V43.76H105v1.85h-3.8V43.76H95.72v1.85H91.89V43.76H86.43v1.85H82.59V43.76H77.17v1.85H73.3V43.76H67.81v2.72H72.4v1H67.81v2.71H73.3V48.4h3.87v1.76h5.42V48.4h3.84v1.76h5.42V48.4h3.87v1.76h5.46V48.4H105v1.76h5.49V47.53h-4.59V46.48Zm-41.8-.87v-1h3.76v1Zm0,2.71h3.76v1H68.67ZM105,46.48v1.05h-3.84V46.48Zm-8.43-1.85h3.72v1H96.59Zm3.72,1.92v.9H96.59v-.9Zm-4.59-.07v1.05H91.89V46.48ZM87.3,44.63H91v1H87.3ZM91,46.55v.9H87.3v-.9Zm-4.59-.07v1.05H82.59V46.48ZM78,44.63h3.69v1H78Zm3.69,1.92v.9H78v-.9Zm-4.63-.07v1.05H73.26V46.48Zm4.63,2.81H78v-1h3.69Zm9.25,0H87.3v-1H91Zm9.33,0H96.59v-1h3.72Zm9.3,0h-3.76V48.4h3.76Zm0-4.66v1h-3.76v-1Zm.86,1.85V43.76H105v1.85h-3.8V43.76H95.72v1.85H91.89V43.76H86.43v1.85H82.59V43.76H77.17v1.85H73.3V43.76H67.81v2.72H72.4v1H67.81v2.71H73.3V48.4h3.87v1.76h5.42V48.4h3.84v1.76h5.42V48.4h3.87v1.76h5.46V48.4H105v1.76h5.49V47.53h-4.59V46.48Zm-41.8-.87v-1h3.76v1Zm0,2.71h3.76v1H68.67ZM105,46.48v1.05h-3.84V46.48Zm-8.43-1.85h3.72v1H96.59Zm3.72,1.92v.9H96.59v-.9Zm-4.59-.07v1.05H91.89V46.48ZM87.3,44.63H91v1H87.3ZM91,46.55v.9H87.3v-.9Zm-4.59-.07v1.05H82.59V46.48ZM78,44.63h3.69v1H78Zm3.69,1.92v.9H78v-.9Zm-4.63-.07v1.05H73.26V46.48Zm4.63,2.81H78v-1h3.69Zm9.25,0H87.3v-1H91Zm9.33,0H96.59v-1h3.72Zm9.3,0h-3.76V48.4h3.76Zm0-4.66v1h-3.76v-1Zm6.29,2.07-2.4-5.27H65.08l-2.47,5.35a13.55,13.55,0,0,0-1.54,5.42v4.06h56.59V54.43A18.53,18.53,0,0,0,115.9,46.7Zm.89,8.69H61.94V52.2a13.05,13.05,0,0,1,1.46-5.06l2.24-4.84H113l2.16,4.76a17.67,17.67,0,0,1,1.68,7.37ZM105,45.61h-3.8V43.76H95.72v1.85H91.89V43.76H86.43v1.85H82.59V43.76H77.17v1.85H73.3V43.76H67.81v2.72H72.4v1H67.81v2.71H73.3V48.4h3.87v1.76h5.42V48.4h3.84v1.76h5.42V48.4h3.87v1.76h5.46V48.4H105v1.76h5.49V47.53h-4.59V46.48h4.59V43.76H105Zm4.63,2.79v.89h-3.76V48.4Zm0-2.79h-3.76v-1h3.76Zm-40.94,0v-1h3.76v1Zm0,2.71h3.76v1H68.67Zm27.92-3.69h3.72v1H96.59Zm3.72,1.92v.9H96.59v-.9Zm-4.59-.07v1.05H91.89V46.48ZM87.3,44.63H91v1H87.3ZM91,46.55v.9H87.3v-.9Zm-4.59-.07v1.05H82.59V46.48ZM78,44.63h3.69v1H78Zm3.69,1.92v.9H78v-.9Zm-4.63-.07v1.05H73.26V46.48Zm4.63,2.81H78v-1h3.69Zm9.25,0H87.3v-1H91Zm9.33,0H96.59v-1h3.72Zm.87-1.76V46.48H105v1.05Zm9.29-1.05V43.76H105v1.85h-3.8V43.76H95.72v1.85H91.89V43.76H86.43v1.85H82.59V43.76H77.17v1.85H73.3V43.76H67.81v2.72H72.4v1H67.81v2.71H73.3V48.4h3.87v1.76h5.42V48.4h3.84v1.76h5.42V48.4h3.87v1.76h5.46V48.4H105v1.76h5.49V47.53h-4.59V46.48Zm-41.8-.87v-1h3.76v1Zm0,2.71h3.76v1H68.67ZM105,46.48v1.05h-3.84V46.48Zm-8.43-1.85h3.72v1H96.59Zm3.72,1.92v.9H96.59v-.9Zm-4.59-.07v1.05H91.89V46.48ZM87.3,44.63H91v1H87.3ZM91,46.55v.9H87.3v-.9Zm-4.59-.07v1.05H82.59V46.48ZM78,44.63h3.69v1H78Zm3.69,1.92v.9H78v-.9Zm-4.63-.07v1.05H73.26V46.48Zm4.63,2.81H78v-1h3.69Zm9.25,0H87.3v-1H91Zm9.33,0H96.59v-1h3.72Zm9.3,0h-3.76V48.4h3.76Zm0-4.66v1h-3.76v-1Zm.86,1.85V43.76H105v1.85h-3.8V43.76H95.72v1.85H91.89V43.76H86.43v1.85H82.59V43.76H77.17v1.85H73.3V43.76H67.81v2.72H72.4v1H67.81v2.71H73.3V48.4h3.87v1.76h5.42V48.4h3.84v1.76h5.42V48.4h3.87v1.76h5.46V48.4H105v1.76h5.49V47.53h-4.59V46.48Zm-41.8-.87v-1h3.76v1Zm0,2.71h3.76v1H68.67ZM105,46.48v1.05h-3.84V46.48Zm-8.43-1.85h3.72v1H96.59Zm3.72,1.92v.9H96.59v-.9Zm-4.59-.07v1.05H91.89V46.48ZM87.3,44.63H91v1H87.3ZM91,46.55v.9H87.3v-.9Zm-4.59-.07v1.05H82.59V46.48ZM78,44.63h3.69v1H78Zm3.69,1.92v.9H78v-.9Zm-4.63-.07v1.05H73.26V46.48Zm4.63,2.81H78v-1h3.69Zm9.25,0H87.3v-1H91Zm9.33,0H96.59v-1h3.72Zm9.3,0h-3.76V48.4h3.76Zm0-4.66v1h-3.76v-1Zm.86,1.85V43.76H105v1.85h-3.8V43.76H95.72v1.85H91.89V43.76H86.43v1.85H82.59V43.76H77.17v1.85H73.3V43.76H67.81v2.72H72.4v1H67.81v2.71H73.3V48.4h3.87v1.76h5.42V48.4h3.84v1.76h5.42V48.4h3.87v1.76h5.46V48.4H105v1.76h5.49V47.53h-4.59V46.48Zm-41.8-.87v-1h3.76v1Zm0,2.71h3.76v1H68.67ZM105,46.48v1.05h-3.84V46.48Zm-8.43-1.85h3.72v1H96.59Zm3.72,1.92v.9H96.59v-.9Zm-4.59-.07v1.05H91.89V46.48ZM87.3,44.63H91v1H87.3ZM91,46.55v.9H87.3v-.9Zm-4.59-.07v1.05H82.59V46.48ZM78,44.63h3.69v1H78Zm3.69,1.92v.9H78v-.9Zm-4.63-.07v1.05H73.26V46.48Zm4.63,2.81H78v-1h3.69Zm9.25,0H87.3v-1H91Zm9.33,0H96.59v-1h3.72Zm9.3,0h-3.76V48.4h3.76Zm0-4.66v1h-3.76v-1Zm.86,1.85V43.76H105v1.85h-3.8V43.76H95.72v1.85H91.89V43.76H86.43v1.85H82.59V43.76H77.17v1.85H73.3V43.76H67.81v2.72H72.4v1H67.81v2.71H73.3V48.4h3.87v1.76h5.42V48.4h3.84v1.76h5.42V48.4h3.87v1.76h5.46V48.4H105v1.76h5.49V47.53h-4.59V46.48Zm-41.8-.87v-1h3.76v1Zm0,2.71h3.76v1H68.67ZM105,46.48v1.05h-3.84V46.48Zm-8.43-1.85h3.72v1H96.59Zm3.72,1.92v.9H96.59v-.9Zm-4.59-.07v1.05H91.89V46.48ZM87.3,44.63H91v1H87.3ZM91,46.55v.9H87.3v-.9Zm-4.59-.07v1.05H82.59V46.48ZM78,44.63h3.69v1H78Zm3.69,1.92v.9H78v-.9Zm-4.63-.07v1.05H73.26V46.48Zm4.63,2.81H78v-1h3.69Zm9.25,0H87.3v-1H91Zm9.33,0H96.59v-1h3.72Zm9.3,0h-3.76V48.4h3.76Zm0-4.66v1h-3.76v-1Zm6.29,2.07-2.4-5.27H65.08l-2.47,5.35a13.55,13.55,0,0,0-1.54,5.42v4.06h56.59V54.43A18.53,18.53,0,0,0,115.9,46.7Zm.89,8.69H61.94V52.2a13.05,13.05,0,0,1,1.46-5.06l2.24-4.84H113l2.16,4.76a17.67,17.67,0,0,1,1.68,7.37ZM105,45.61h-3.8V43.76H95.72v1.85H91.89V43.76H86.43v1.85H82.59V43.76H77.17v1.85H73.3V43.76H67.81v2.72H72.4v1H67.81v2.71H73.3V48.4h3.87v1.76h5.42V48.4h3.84v1.76h5.42V48.4h3.87v1.76h5.46V48.4H105v1.76h5.49V47.53h-4.59V46.48h4.59V43.76H105Zm4.63,2.79v.89h-3.76V48.4Zm0-2.79h-3.76v-1h3.76Zm-40.94,0v-1h3.76v1Zm0,2.71h3.76v1H68.67Zm27.92-3.69h3.72v1H96.59Zm3.72,1.92v.9H96.59v-.9Zm-4.59-.07v1.05H91.89V46.48ZM87.3,44.63H91v1H87.3ZM91,46.55v.9H87.3v-.9Zm-4.59-.07v1.05H82.59V46.48ZM78,44.63h3.69v1H78Zm3.69,1.92v.9H78v-.9Zm-4.63-.07v1.05H73.26V46.48Zm4.63,2.81H78v-1h3.69Zm9.25,0H87.3v-1H91Zm9.33,0H96.59v-1h3.72Zm.87-1.76V46.48H105v1.05Zm9.29-1.05V43.76H105v1.85h-3.8V43.76H95.72v1.85H91.89V43.76H86.43v1.85H82.59V43.76H77.17v1.85H73.3V43.76H67.81v2.72H72.4v1H67.81v2.71H73.3V48.4h3.87v1.76h5.42V48.4h3.84v1.76h5.42V48.4h3.87v1.76h5.46V48.4H105v1.76h5.49V47.53h-4.59V46.48Zm-41.8-.87v-1h3.76v1Zm0,2.71h3.76v1H68.67ZM105,46.48v1.05h-3.84V46.48Zm-8.43-1.85h3.72v1H96.59Zm3.72,1.92v.9H96.59v-.9Zm-4.59-.07v1.05H91.89V46.48ZM87.3,44.63H91v1H87.3ZM91,46.55v.9H87.3v-.9Zm-4.59-.07v1.05H82.59V46.48ZM78,44.63h3.69v1H78Zm3.69,1.92v.9H78v-.9Zm-4.63-.07v1.05H73.26V46.48Zm4.63,2.81H78v-1h3.69Zm9.25,0H87.3v-1H91Zm9.33,0H96.59v-1h3.72Zm9.3,0h-3.76V48.4h3.76Zm0-4.66v1h-3.76v-1Zm.86,1.85V43.76H105v1.85h-3.8V43.76H95.72v1.85H91.89V43.76H86.43v1.85H82.59V43.76H77.17v1.85H73.3V43.76H67.81v2.72H72.4v1H67.81v2.71H73.3V48.4h3.87v1.76h5.42V48.4h3.84v1.76h5.42V48.4h3.87v1.76h5.46V48.4H105v1.76h5.49V47.53h-4.59V46.48Zm-41.8-.87v-1h3.76v1Zm0,2.71h3.76v1H68.67ZM105,46.48v1.05h-3.84V46.48Zm-8.43-1.85h3.72v1H96.59Zm3.72,1.92v.9H96.59v-.9Zm-4.59-.07v1.05H91.89V46.48ZM87.3,44.63H91v1H87.3ZM91,46.55v.9H87.3v-.9Zm-4.59-.07v1.05H82.59V46.48ZM78,44.63h3.69v1H78Zm3.69,1.92v.9H78v-.9Zm-4.63-.07v1.05H73.26V46.48Zm4.63,2.81H78v-1h3.69Zm9.25,0H87.3v-1H91Zm9.33,0H96.59v-1h3.72Zm9.3,0h-3.76V48.4h3.76Zm0-4.66v1h-3.76v-1Zm.86,1.85V43.76H105v1.85h-3.8V43.76H95.72v1.85H91.89V43.76H86.43v1.85H82.59V43.76H77.17v1.85H73.3V43.76H67.81v2.72H72.4v1H67.81v2.71H73.3V48.4h3.87v1.76h5.42V48.4h3.84v1.76h5.42V48.4h3.87v1.76h5.46V48.4H105v1.76h5.49V47.53h-4.59V46.48Zm-41.8-.87v-1h3.76v1Zm0,2.71h3.76v1H68.67ZM105,46.48v1.05h-3.84V46.48Zm-8.43-1.85h3.72v1H96.59Zm3.72,1.92v.9H96.59v-.9Zm-4.59-.07v1.05H91.89V46.48ZM87.3,44.63H91v1H87.3ZM91,46.55v.9H87.3v-.9Zm-4.59-.07v1.05H82.59V46.48ZM78,44.63h3.69v1H78Zm3.69,1.92v.9H78v-.9Zm-4.63-.07v1.05H73.26V46.48Zm4.63,2.81H78v-1h3.69Zm9.25,0H87.3v-1H91Zm9.33,0H96.59v-1h3.72Zm9.3,0h-3.76V48.4h3.76Zm0-4.66v1h-3.76v-1Zm.86,1.85V43.76H105v1.85h-3.8V43.76H95.72v1.85H91.89V43.76H86.43v1.85H82.59V43.76H77.17v1.85H73.3V43.76H67.81v2.72H72.4v1H67.81v2.71H73.3V48.4h3.87v1.76h5.42V48.4h3.84v1.76h5.42V48.4h3.87v1.76h5.46V48.4H105v1.76h5.49V47.53h-4.59V46.48Zm-41.8-.87v-1h3.76v1Zm0,2.71h3.76v1H68.67ZM105,46.48v1.05h-3.84V46.48Zm-8.43-1.85h3.72v1H96.59Zm3.72,1.92v.9H96.59v-.9Zm-4.59-.07v1.05H91.89V46.48ZM87.3,44.63H91v1H87.3ZM91,46.55v.9H87.3v-.9Zm-4.59-.07v1.05H82.59V46.48ZM78,44.63h3.69v1H78Zm3.69,1.92v.9H78v-.9Zm-4.63-.07v1.05H73.26V46.48Zm4.63,2.81H78v-1h3.69Zm9.25,0H87.3v-1H91Zm9.33,0H96.59v-1h3.72Zm9.3,0h-3.76V48.4h3.76Zm0-4.66v1h-3.76v-1Zm6.29,2.07-2.4-5.27H65.08l-2.47,5.35a13.55,13.55,0,0,0-1.54,5.42v4.06h56.59V54.43A18.53,18.53,0,0,0,115.9,46.7Zm.89,8.69H61.94V52.2a13.05,13.05,0,0,1,1.46-5.06l2.24-4.84H113l2.16,4.76a17.67,17.67,0,0,1,1.68,7.37ZM105,45.61h-3.8V43.76H95.72v1.85H91.89V43.76H86.43v1.85H82.59V43.76H77.17v1.85H73.3V43.76H67.81v2.72H72.4v1H67.81v2.71H73.3V48.4h3.87v1.76h5.42V48.4h3.84v1.76h5.42V48.4h3.87v1.76h5.46V48.4H105v1.76h5.49V47.53h-4.59V46.48h4.59V43.76H105Zm4.63,2.79v.89h-3.76V48.4Zm0-2.79h-3.76v-1h3.76Zm-40.94,0v-1h3.76v1Zm0,2.71h3.76v1H68.67Zm27.92-3.69h3.72v1H96.59Zm3.72,1.92v.9H96.59v-.9Zm-4.59-.07v1.05H91.89V46.48ZM87.3,44.63H91v1H87.3ZM91,46.55v.9H87.3v-.9Zm-4.59-.07v1.05H82.59V46.48ZM78,44.63h3.69v1H78Zm3.69,1.92v.9H78v-.9Zm-4.63-.07v1.05H73.26V46.48Zm4.63,2.81H78v-1h3.69Zm9.25,0H87.3v-1H91Zm9.33,0H96.59v-1h3.72Zm.87-1.76V46.48H105v1.05Zm14.72-.83-2.4-5.27H65.08l-2.47,5.35a13.55,13.55,0,0,0-1.54,5.42v4.06h56.59V54.43A18.53,18.53,0,0,0,115.9,46.7Zm.89,8.69H61.94V52.2a13.05,13.05,0,0,1,1.46-5.06l2.24-4.84H113l2.16,4.76a17.67,17.67,0,0,1,1.68,7.37ZM105,45.61h-3.8V43.76H95.72v1.85H91.89V43.76H86.43v1.85H82.59V43.76H77.17v1.85H73.3V43.76H67.81v2.72H72.4v1H67.81v2.71H73.3V48.4h3.87v1.76h5.42V48.4h3.84v1.76h5.42V48.4h3.87v1.76h5.46V48.4H105v1.76h5.49V47.53h-4.59V46.48h4.59V43.76H105Zm4.63,2.79v.89h-3.76V48.4Zm0-2.79h-3.76v-1h3.76Zm-40.94,0v-1h3.76v1Zm0,2.71h3.76v1H68.67Zm27.92-3.69h3.72v1H96.59Zm3.72,1.92v.9H96.59v-.9Zm-4.59-.07v1.05H91.89V46.48ZM87.3,44.63H91v1H87.3ZM91,46.55v.9H87.3v-.9Zm-4.59-.07v1.05H82.59V46.48ZM78,44.63h3.69v1H78Zm3.69,1.92v.9H78v-.9Zm-4.63-.07v1.05H73.26V46.48Zm4.63,2.81H78v-1h3.69Zm9.25,0H87.3v-1H91Zm9.33,0H96.59v-1h3.72Zm.87-1.76V46.48H105v1.05ZM117.5,45.4l-2.79-5.81H64L61.23,45.4a18.43,18.43,0,0,0-2,8V58.1H119.5V53.38A18.27,18.27,0,0,0,117.5,45.4Zm1.13,11.83H60.1V53.38A17.59,17.59,0,0,1,62,45.78l2.55-5.32h49.61l2.55,5.32a17.42,17.42,0,0,1,1.91,7.6Zm-5.13-15.8H65.08l-2.47,5.35a13.55,13.55,0,0,0-1.54,5.42v4.06h56.59V54.43a18.53,18.53,0,0,0-1.76-7.73Zm3.29,14H61.94V52.2a13.05,13.05,0,0,1,1.46-5.06l2.24-4.84H113l2.16,4.76a17.67,17.67,0,0,1,1.68,7.37ZM105,45.61h-3.8V43.76H95.72v1.85H91.89V43.76H86.43v1.85H82.59V43.76H77.17v1.85H73.3V43.76H67.81v2.72H72.4v1H67.81v2.71H73.3V48.4h3.87v1.76h5.42V48.4h3.84v1.76h5.42V48.4h3.87v1.76h5.46V48.4H105v1.76h5.49V47.53h-4.59V46.48h4.59V43.76H105Zm4.63,2.79v.89h-3.76V48.4Zm0-2.79h-3.76v-1h3.76Zm-40.94,0v-1h3.76v1Zm0,2.71h3.76v1H68.67Zm27.92-3.69h3.72v1H96.59Zm3.72,1.92v.9H96.59v-.9Zm-4.59-.07v1.05H91.89V46.48ZM87.3,44.63H91v1H87.3ZM91,46.55v.9H87.3v-.9Zm-4.59-.07v1.05H82.59V46.48ZM78,44.63h3.69v1H78Zm3.69,1.92v.9H78v-.9Zm-4.63-.07v1.05H73.26V46.48Zm4.63,2.81H78v-1h3.69Zm9.25,0H87.3v-1H91Zm9.33,0H96.59v-1h3.72Zm.87-1.76V46.48H105v1.05Zm9.29-1.05V43.76H105v1.85h-3.8V43.76H95.72v1.85H91.89V43.76H86.43v1.85H82.59V43.76H77.17v1.85H73.3V43.76H67.81v2.72H72.4v1H67.81v2.71H73.3V48.4h3.87v1.76h5.42V48.4h3.84v1.76h5.42V48.4h3.87v1.76h5.46V48.4H105v1.76h5.49V47.53h-4.59V46.48Zm-41.8-.87v-1h3.76v1Zm0,2.71h3.76v1H68.67ZM105,46.48v1.05h-3.84V46.48Zm-8.43-1.85h3.72v1H96.59Zm3.72,1.92v.9H96.59v-.9Zm-4.59-.07v1.05H91.89V46.48ZM87.3,44.63H91v1H87.3ZM91,46.55v.9H87.3v-.9Zm-4.59-.07v1.05H82.59V46.48ZM78,44.63h3.69v1H78Zm3.69,1.92v.9H78v-.9Zm-4.63-.07v1.05H73.26V46.48Zm4.63,2.81H78v-1h3.69Zm9.25,0H87.3v-1H91Zm9.33,0H96.59v-1h3.72Zm9.3,0h-3.76V48.4h3.76Zm0-4.66v1h-3.76v-1Zm.86,1.85V43.76H105v1.85h-3.8V43.76H95.72v1.85H91.89V43.76H86.43v1.85H82.59V43.76H77.17v1.85H73.3V43.76H67.81v2.72H72.4v1H67.81v2.71H73.3V48.4h3.87v1.76h5.42V48.4h3.84v1.76h5.42V48.4h3.87v1.76h5.46V48.4H105v1.76h5.49V47.53h-4.59V46.48Zm-41.8-.87v-1h3.76v1Zm0,2.71h3.76v1H68.67ZM105,46.48v1.05h-3.84V46.48Zm-8.43-1.85h3.72v1H96.59Zm3.72,1.92v.9H96.59v-.9Zm-4.59-.07v1.05H91.89V46.48ZM87.3,44.63H91v1H87.3ZM91,46.55v.9H87.3v-.9Zm-4.59-.07v1.05H82.59V46.48ZM78,44.63h3.69v1H78Zm3.69,1.92v.9H78v-.9Zm-4.63-.07v1.05H73.26V46.48Zm4.63,2.81H78v-1h3.69Zm9.25,0H87.3v-1H91Zm9.33,0H96.59v-1h3.72Zm9.3,0h-3.76V48.4h3.76Zm0-4.66v1h-3.76v-1Zm6.29,2.07-2.4-5.27H65.08l-2.47,5.35a13.55,13.55,0,0,0-1.54,5.42v4.06h56.59V54.43A18.53,18.53,0,0,0,115.9,46.7Zm.89,8.69H61.94V52.2a13.05,13.05,0,0,1,1.46-5.06l2.24-4.84H113l2.16,4.76a17.67,17.67,0,0,1,1.68,7.37ZM105,45.61h-3.8V43.76H95.72v1.85H91.89V43.76H86.43v1.85H82.59V43.76H77.17v1.85H73.3V43.76H67.81v2.72H72.4v1H67.81v2.71H73.3V48.4h3.87v1.76h5.42V48.4h3.84v1.76h5.42V48.4h3.87v1.76h5.46V48.4H105v1.76h5.49V47.53h-4.59V46.48h4.59V43.76H105Zm4.63,2.79v.89h-3.76V48.4Zm0-2.79h-3.76v-1h3.76Zm-40.94,0v-1h3.76v1Zm0,2.71h3.76v1H68.67Zm27.92-3.69h3.72v1H96.59Zm3.72,1.92v.9H96.59v-.9Zm-4.59-.07v1.05H91.89V46.48ZM87.3,44.63H91v1H87.3ZM91,46.55v.9H87.3v-.9Zm-4.59-.07v1.05H82.59V46.48ZM78,44.63h3.69v1H78Zm3.69,1.92v.9H78v-.9Zm-4.63-.07v1.05H73.26V46.48Zm4.63,2.81H78v-1h3.69Zm9.25,0H87.3v-1H91Zm9.33,0H96.59v-1h3.72Zm.87-1.76V46.48H105v1.05Zm9.29-1.05V43.76H105v1.85h-3.8V43.76H95.72v1.85H91.89V43.76H86.43v1.85H82.59V43.76H77.17v1.85H73.3V43.76H67.81v2.72H72.4v1H67.81v2.71H73.3V48.4h3.87v1.76h5.42V48.4h3.84v1.76h5.42V48.4h3.87v1.76h5.46V48.4H105v1.76h5.49V47.53h-4.59V46.48Zm-41.8-.87v-1h3.76v1Zm0,2.71h3.76v1H68.67ZM105,46.48v1.05h-3.84V46.48Zm-8.43-1.85h3.72v1H96.59Zm3.72,1.92v.9H96.59v-.9Zm-4.59-.07v1.05H91.89V46.48ZM87.3,44.63H91v1H87.3ZM91,46.55v.9H87.3v-.9Zm-4.59-.07v1.05H82.59V46.48ZM78,44.63h3.69v1H78Zm3.69,1.92v.9H78v-.9Zm-4.63-.07v1.05H73.26V46.48Zm4.63,2.81H78v-1h3.69Zm9.25,0H87.3v-1H91Zm9.33,0H96.59v-1h3.72Zm9.3,0h-3.76V48.4h3.76Zm0-4.66v1h-3.76v-1Zm.86,1.85V43.76H105v1.85h-3.8V43.76H95.72v1.85H91.89V43.76H86.43v1.85H82.59V43.76H77.17v1.85H73.3V43.76H67.81v2.72H72.4v1H67.81v2.71H73.3V48.4h3.87v1.76h5.42V48.4h3.84v1.76h5.42V48.4h3.87v1.76h5.46V48.4H105v1.76h5.49V47.53h-4.59V46.48Zm-41.8-.87v-1h3.76v1Zm0,2.71h3.76v1H68.67ZM105,46.48v1.05h-3.84V46.48Zm-8.43-1.85h3.72v1H96.59Zm3.72,1.92v.9H96.59v-.9Zm-4.59-.07v1.05H91.89V46.48ZM87.3,44.63H91v1H87.3ZM91,46.55v.9H87.3v-.9Zm-4.59-.07v1.05H82.59V46.48ZM78,44.63h3.69v1H78Zm3.69,1.92v.9H78v-.9Zm-4.63-.07v1.05H73.26V46.48Zm4.63,2.81H78v-1h3.69Zm9.25,0H87.3v-1H91Zm9.33,0H96.59v-1h3.72Zm9.3,0h-3.76V48.4h3.76Zm0-4.66v1h-3.76v-1Zm6.29,2.07-2.4-5.27H65.08l-2.47,5.35a13.55,13.55,0,0,0-1.54,5.42v4.06h56.59V54.43A18.53,18.53,0,0,0,115.9,46.7Zm.89,8.69H61.94V52.2a13.05,13.05,0,0,1,1.46-5.06l2.24-4.84H113l2.16,4.76a17.67,17.67,0,0,1,1.68,7.37ZM105,45.61h-3.8V43.76H95.72v1.85H91.89V43.76H86.43v1.85H82.59V43.76H77.17v1.85H73.3V43.76H67.81v2.72H72.4v1H67.81v2.71H73.3V48.4h3.87v1.76h5.42V48.4h3.84v1.76h5.42V48.4h3.87v1.76h5.46V48.4H105v1.76h5.49V47.53h-4.59V46.48h4.59V43.76H105Zm4.63,2.79v.89h-3.76V48.4Zm0-2.79h-3.76v-1h3.76Zm-40.94,0v-1h3.76v1Zm0,2.71h3.76v1H68.67Zm27.92-3.69h3.72v1H96.59Zm3.72,1.92v.9H96.59v-.9Zm-4.59-.07v1.05H91.89V46.48ZM87.3,44.63H91v1H87.3ZM91,46.55v.9H87.3v-.9Zm-4.59-.07v1.05H82.59V46.48ZM78,44.63h3.69v1H78Zm3.69,1.92v.9H78v-.9Zm-4.63-.07v1.05H73.26V46.48Zm4.63,2.81H78v-1h3.69Zm9.25,0H87.3v-1H91Zm9.33,0H96.59v-1h3.72Zm.87-1.76V46.48H105v1.05Zm9.29-1.05V43.76H105v1.85h-3.8V43.76H95.72v1.85H91.89V43.76H86.43v1.85H82.59V43.76H77.17v1.85H73.3V43.76H67.81v2.72H72.4v1H67.81v2.71H73.3V48.4h3.87v1.76h5.42V48.4h3.84v1.76h5.42V48.4h3.87v1.76h5.46V48.4H105v1.76h5.49V47.53h-4.59V46.48Zm-41.8-.87v-1h3.76v1Zm0,2.71h3.76v1H68.67ZM105,46.48v1.05h-3.84V46.48Zm-8.43-1.85h3.72v1H96.59Zm3.72,1.92v.9H96.59v-.9Zm-4.59-.07v1.05H91.89V46.48ZM87.3,44.63H91v1H87.3ZM91,46.55v.9H87.3v-.9Zm-4.59-.07v1.05H82.59V46.48ZM78,44.63h3.69v1H78Zm3.69,1.92v.9H78v-.9Zm-4.63-.07v1.05H73.26V46.48Zm4.63,2.81H78v-1h3.69Zm9.25,0H87.3v-1H91Zm9.33,0H96.59v-1h3.72Zm9.3,0h-3.76V48.4h3.76Zm0-4.66v1h-3.76v-1Zm.86,1.85V43.76H105v1.85h-3.8V43.76H95.72v1.85H91.89V43.76H86.43v1.85H82.59V43.76H77.17v1.85H73.3V43.76H67.81v2.72H72.4v1H67.81v2.71H73.3V48.4h3.87v1.76h5.42V48.4h3.84v1.76h5.42V48.4h3.87v1.76h5.46V48.4H105v1.76h5.49V47.53h-4.59V46.48Zm-41.8-.87v-1h3.76v1Zm0,2.71h3.76v1H68.67ZM105,46.48v1.05h-3.84V46.48Zm-8.43-1.85h3.72v1H96.59Zm3.72,1.92v.9H96.59v-.9Zm-4.59-.07v1.05H91.89V46.48ZM87.3,44.63H91v1H87.3ZM91,46.55v.9H87.3v-.9Zm-4.59-.07v1.05H82.59V46.48ZM78,44.63h3.69v1H78Zm3.69,1.92v.9H78v-.9Zm-4.63-.07v1.05H73.26V46.48Zm4.63,2.81H78v-1h3.69Zm9.25,0H87.3v-1H91Zm9.33,0H96.59v-1h3.72Zm9.3,0h-3.76V48.4h3.76Zm0-4.66v1h-3.76v-1Zm.86,1.85V43.76H105v1.85h-3.8V43.76H95.72v1.85H91.89V43.76H86.43v1.85H82.59V43.76H77.17v1.85H73.3V43.76H67.81v2.72H72.4v1H67.81v2.71H73.3V48.4h3.87v1.76h5.42V48.4h3.84v1.76h5.42V48.4h3.87v1.76h5.46V48.4H105v1.76h5.49V47.53h-4.59V46.48Zm-41.8-.87v-1h3.76v1Zm0,2.71h3.76v1H68.67ZM105,46.48v1.05h-3.84V46.48Zm-8.43-1.85h3.72v1H96.59Zm3.72,1.92v.9H96.59v-.9Zm-4.59-.07v1.05H91.89V46.48ZM87.3,44.63H91v1H87.3ZM91,46.55v.9H87.3v-.9Zm-4.59-.07v1.05H82.59V46.48ZM78,44.63h3.69v1H78Zm3.69,1.92v.9H78v-.9Zm-4.63-.07v1.05H73.26V46.48Zm4.63,2.81H78v-1h3.69Zm9.25,0H87.3v-1H91Zm9.33,0H96.59v-1h3.72Zm9.3,0h-3.76V48.4h3.76Zm0-4.66v1h-3.76v-1Zm.86,1.85V43.76H105v1.85h-3.8V43.76H95.72v1.85H91.89V43.76H86.43v1.85H82.59V43.76H77.17v1.85H73.3V43.76H67.81v2.72H72.4v1H67.81v2.71H73.3V48.4h3.87v1.76h5.42V48.4h3.84v1.76h5.42V48.4h3.87v1.76h5.46V48.4H105v1.76h5.49V47.53h-4.59V46.48Zm-41.8-.87v-1h3.76v1Zm0,2.71h3.76v1H68.67ZM105,46.48v1.05h-3.84V46.48Zm-8.43-1.85h3.72v1H96.59Zm3.72,1.92v.9H96.59v-.9Zm-4.59-.07v1.05H91.89V46.48ZM87.3,44.63H91v1H87.3ZM91,46.55v.9H87.3v-.9Zm-4.59-.07v1.05H82.59V46.48ZM78,44.63h3.69v1H78Zm3.69,1.92v.9H78v-.9Zm-4.63-.07v1.05H73.26V46.48Zm4.63,2.81H78v-1h3.69Zm9.25,0H87.3v-1H91Zm9.33,0H96.59v-1h3.72Zm9.3,0h-3.76V48.4h3.76Zm0-4.66v1h-3.76v-1Zm.86,1.85V43.76H105v1.85h-3.8V43.76H95.72v1.85H91.89V43.76H86.43v1.85H82.59V43.76H77.17v1.85H73.3V43.76H67.81v2.72H72.4v1H67.81v2.71H73.3V48.4h3.87v1.76h5.42V48.4h3.84v1.76h5.42V48.4h3.87v1.76h5.46V48.4H105v1.76h5.49V47.53h-4.59V46.48Zm-41.8-.87v-1h3.76v1Zm0,2.71h3.76v1H68.67ZM105,46.48v1.05h-3.84V46.48Zm-8.43-1.85h3.72v1H96.59Zm3.72,1.92v.9H96.59v-.9Zm-4.59-.07v1.05H91.89V46.48ZM87.3,44.63H91v1H87.3ZM91,46.55v.9H87.3v-.9Zm-4.59-.07v1.05H82.59V46.48ZM78,44.63h3.69v1H78Zm3.69,1.92v.9H78v-.9Zm-4.63-.07v1.05H73.26V46.48Zm4.63,2.81H78v-1h3.69Zm9.25,0H87.3v-1H91Zm9.33,0H96.59v-1h3.72Zm9.3,0h-3.76V48.4h3.76Zm0-4.66v1h-3.76v-1Zm.86,1.85V43.76H105v1.85h-3.8V43.76H95.72v1.85H91.89V43.76H86.43v1.85H82.59V43.76H77.17v1.85H73.3V43.76H67.81v2.72H72.4v1H67.81v2.71H73.3V48.4h3.87v1.76h5.42V48.4h3.84v1.76h5.42V48.4h3.87v1.76h5.46V48.4H105v1.76h5.49V47.53h-4.59V46.48Zm-41.8-.87v-1h3.76v1Zm0,2.71h3.76v1H68.67ZM105,46.48v1.05h-3.84V46.48Zm-8.43-1.85h3.72v1H96.59Zm3.72,1.92v.9H96.59v-.9Zm-4.59-.07v1.05H91.89V46.48ZM87.3,44.63H91v1H87.3ZM91,46.55v.9H87.3v-.9Zm-4.59-.07v1.05H82.59V46.48ZM78,44.63h3.69v1H78Zm3.69,1.92v.9H78v-.9Zm-4.63-.07v1.05H73.26V46.48Zm4.63,2.81H78v-1h3.69Zm9.25,0H87.3v-1H91Zm9.33,0H96.59v-1h3.72Zm9.3,0h-3.76V48.4h3.76Zm0-4.66v1h-3.76v-1Zm6.29,2.07-2.4-5.27H65.08l-2.47,5.35a13.55,13.55,0,0,0-1.54,5.42v4.06h56.59V54.43A18.53,18.53,0,0,0,115.9,46.7Zm.89,8.69H61.94V52.2a13.05,13.05,0,0,1,1.46-5.06l2.24-4.84H113l2.16,4.76a17.67,17.67,0,0,1,1.68,7.37ZM105,45.61h-3.8V43.76H95.72v1.85H91.89V43.76H86.43v1.85H82.59V43.76H77.17v1.85H73.3V43.76H67.81v2.72H72.4v1H67.81v2.71H73.3V48.4h3.87v1.76h5.42V48.4h3.84v1.76h5.42V48.4h3.87v1.76h5.46V48.4H105v1.76h5.49V47.53h-4.59V46.48h4.59V43.76H105Zm4.63,2.79v.89h-3.76V48.4Zm0-2.79h-3.76v-1h3.76Zm-40.94,0v-1h3.76v1Zm0,2.71h3.76v1H68.67Zm27.92-3.69h3.72v1H96.59Zm3.72,1.92v.9H96.59v-.9Zm-4.59-.07v1.05H91.89V46.48ZM87.3,44.63H91v1H87.3ZM91,46.55v.9H87.3v-.9Zm-4.59-.07v1.05H82.59V46.48ZM78,44.63h3.69v1H78Zm3.69,1.92v.9H78v-.9Zm-4.63-.07v1.05H73.26V46.48Zm4.63,2.81H78v-1h3.69Zm9.25,0H87.3v-1H91Zm9.33,0H96.59v-1h3.72Zm.87-1.76V46.48H105v1.05Zm9.29-1.05V43.76H105v1.85h-3.8V43.76H95.72v1.85H91.89V43.76H86.43v1.85H82.59V43.76H77.17v1.85H73.3V43.76H67.81v2.72H72.4v1H67.81v2.71H73.3V48.4h3.87v1.76h5.42V48.4h3.84v1.76h5.42V48.4h3.87v1.76h5.46V48.4H105v1.76h5.49V47.53h-4.59V46.48Zm-41.8-.87v-1h3.76v1Zm0,2.71h3.76v1H68.67ZM105,46.48v1.05h-3.84V46.48Zm-8.43-1.85h3.72v1H96.59Zm3.72,1.92v.9H96.59v-.9Zm-4.59-.07v1.05H91.89V46.48ZM87.3,44.63H91v1H87.3ZM91,46.55v.9H87.3v-.9Zm-4.59-.07v1.05H82.59V46.48ZM78,44.63h3.69v1H78Zm3.69,1.92v.9H78v-.9Zm-4.63-.07v1.05H73.26V46.48Zm4.63,2.81H78v-1h3.69Zm9.25,0H87.3v-1H91Zm9.33,0H96.59v-1h3.72Zm9.3,0h-3.76V48.4h3.76Zm0-4.66v1h-3.76v-1Zm.86,1.85V43.76H105v1.85h-3.8V43.76H95.72v1.85H91.89V43.76H86.43v1.85H82.59V43.76H77.17v1.85H73.3V43.76H67.81v2.72H72.4v1H67.81v2.71H73.3V48.4h3.87v1.76h5.42V48.4h3.84v1.76h5.42V48.4h3.87v1.76h5.46V48.4H105v1.76h5.49V47.53h-4.59V46.48Zm-41.8-.87v-1h3.76v1Zm0,2.71h3.76v1H68.67ZM105,46.48v1.05h-3.84V46.48Zm-8.43-1.85h3.72v1H96.59Zm3.72,1.92v.9H96.59v-.9Zm-4.59-.07v1.05H91.89V46.48ZM87.3,44.63H91v1H87.3ZM91,46.55v.9H87.3v-.9Zm-4.59-.07v1.05H82.59V46.48ZM78,44.63h3.69v1H78Zm3.69,1.92v.9H78v-.9Zm-4.63-.07v1.05H73.26V46.48Zm4.63,2.81H78v-1h3.69Zm9.25,0H87.3v-1H91Zm9.33,0H96.59v-1h3.72Zm9.3,0h-3.76V48.4h3.76Zm0-4.66v1h-3.76v-1Zm.86,1.85V43.76H105v1.85h-3.8V43.76H95.72v1.85H91.89V43.76H86.43v1.85H82.59V43.76H77.17v1.85H73.3V43.76H67.81v2.72H72.4v1H67.81v2.71H73.3V48.4h3.87v1.76h5.42V48.4h3.84v1.76h5.42V48.4h3.87v1.76h5.46V48.4H105v1.76h5.49V47.53h-4.59V46.48Zm-41.8-.87v-1h3.76v1Zm0,2.71h3.76v1H68.67ZM105,46.48v1.05h-3.84V46.48Zm-8.43-1.85h3.72v1H96.59Zm3.72,1.92v.9H96.59v-.9Zm-4.59-.07v1.05H91.89V46.48ZM87.3,44.63H91v1H87.3ZM91,46.55v.9H87.3v-.9Zm-4.59-.07v1.05H82.59V46.48ZM78,44.63h3.69v1H78Zm3.69,1.92v.9H78v-.9Zm-4.63-.07v1.05H73.26V46.48Zm4.63,2.81H78v-1h3.69Zm9.25,0H87.3v-1H91Zm9.33,0H96.59v-1h3.72Zm9.3,0h-3.76V48.4h3.76Zm0-4.66v1h-3.76v-1Zm.86,1.85V43.76H105v1.85h-3.8V43.76H95.72v1.85H91.89V43.76H86.43v1.85H82.59V43.76H77.17v1.85H73.3V43.76H67.81v2.72H72.4v1H67.81v2.71H73.3V48.4h3.87v1.76h5.42V48.4h3.84v1.76h5.42V48.4h3.87v1.76h5.46V48.4H105v1.76h5.49V47.53h-4.59V46.48Zm-41.8-.87v-1h3.76v1Zm0,2.71h3.76v1H68.67ZM105,46.48v1.05h-3.84V46.48Zm-8.43-1.85h3.72v1H96.59Zm3.72,1.92v.9H96.59v-.9Zm-4.59-.07v1.05H91.89V46.48ZM87.3,44.63H91v1H87.3ZM91,46.55v.9H87.3v-.9Zm-4.59-.07v1.05H82.59V46.48ZM78,44.63h3.69v1H78Zm3.69,1.92v.9H78v-.9Zm-4.63-.07v1.05H73.26V46.48Zm4.63,2.81H78v-1h3.69Zm9.25,0H87.3v-1H91Zm9.33,0H96.59v-1h3.72Zm9.3,0h-3.76V48.4h3.76Zm0-4.66v1h-3.76v-1Zm.86,1.85V43.76H105v1.85h-3.8V43.76H95.72v1.85H91.89V43.76H86.43v1.85H82.59V43.76H77.17v1.85H73.3V43.76H67.81v2.72H72.4v1H67.81v2.71H73.3V48.4h3.87v1.76h5.42V48.4h3.84v1.76h5.42V48.4h3.87v1.76h5.46V48.4H105v1.76h5.49V47.53h-4.59V46.48Zm-41.8-.87v-1h3.76v1Zm0,2.71h3.76v1H68.67ZM105,46.48v1.05h-3.84V46.48Zm-8.43-1.85h3.72v1H96.59Zm3.72,1.92v.9H96.59v-.9Zm-4.59-.07v1.05H91.89V46.48ZM87.3,44.63H91v1H87.3ZM91,46.55v.9H87.3v-.9Zm-4.59-.07v1.05H82.59V46.48ZM78,44.63h3.69v1H78Zm3.69,1.92v.9H78v-.9Zm-4.63-.07v1.05H73.26V46.48Zm4.63,2.81H78v-1h3.69Zm9.25,0H87.3v-1H91Zm9.33,0H96.59v-1h3.72Zm9.3,0h-3.76V48.4h3.76Zm0-4.66v1h-3.76v-1Zm.86,1.85V43.76H105v1.85h-3.8V43.76H95.72v1.85H91.89V43.76H86.43v1.85H82.59V43.76H77.17v1.85H73.3V43.76H67.81v2.72H72.4v1H67.81v2.71H73.3V48.4h3.87v1.76h5.42V48.4h3.84v1.76h5.42V48.4h3.87v1.76h5.46V48.4H105v1.76h5.49V47.53h-4.59V46.48Zm-41.8-.87v-1h3.76v1Zm0,2.71h3.76v1H68.67ZM105,46.48v1.05h-3.84V46.48Zm-8.43-1.85h3.72v1H96.59Zm3.72,1.92v.9H96.59v-.9Zm-4.59-.07v1.05H91.89V46.48ZM87.3,44.63H91v1H87.3ZM91,46.55v.9H87.3v-.9Zm-4.59-.07v1.05H82.59V46.48ZM78,44.63h3.69v1H78Zm3.69,1.92v.9H78v-.9Zm-4.63-.07v1.05H73.26V46.48Zm4.63,2.81H78v-1h3.69Zm9.25,0H87.3v-1H91Zm9.33,0H96.59v-1h3.72Zm9.3,0h-3.76V48.4h3.76Zm0-4.66v1h-3.76v-1Zm6.29,2.07-2.4-5.27H65.08l-2.47,5.35a13.55,13.55,0,0,0-1.54,5.42v4.06h56.59V54.43A18.53,18.53,0,0,0,115.9,46.7Zm.89,8.69H61.94V52.2a13.05,13.05,0,0,1,1.46-5.06l2.24-4.84H113l2.16,4.76a17.67,17.67,0,0,1,1.68,7.37ZM105,45.61h-3.8V43.76H95.72v1.85H91.89V43.76H86.43v1.85H82.59V43.76H77.17v1.85H73.3V43.76H67.81v2.72H72.4v1H67.81v2.71H73.3V48.4h3.87v1.76h5.42V48.4h3.84v1.76h5.42V48.4h3.87v1.76h5.46V48.4H105v1.76h5.49V47.53h-4.59V46.48h4.59V43.76H105Zm4.63,2.79v.89h-3.76V48.4Zm0-2.79h-3.76v-1h3.76Zm-40.94,0v-1h3.76v1Zm0,2.71h3.76v1H68.67Zm27.92-3.69h3.72v1H96.59Zm3.72,1.92v.9H96.59v-.9Zm-4.59-.07v1.05H91.89V46.48ZM87.3,44.63H91v1H87.3ZM91,46.55v.9H87.3v-.9Zm-4.59-.07v1.05H82.59V46.48ZM78,44.63h3.69v1H78Zm3.69,1.92v.9H78v-.9Zm-4.63-.07v1.05H73.26V46.48Zm4.63,2.81H78v-1h3.69Zm9.25,0H87.3v-1H91Zm9.33,0H96.59v-1h3.72Zm.87-1.76V46.48H105v1.05Zm9.29-1.05V43.76H105v1.85h-3.8V43.76H95.72v1.85H91.89V43.76H86.43v1.85H82.59V43.76H77.17v1.85H73.3V43.76H67.81v2.72H72.4v1H67.81v2.71H73.3V48.4h3.87v1.76h5.42V48.4h3.84v1.76h5.42V48.4h3.87v1.76h5.46V48.4H105v1.76h5.49V47.53h-4.59V46.48Zm-41.8-.87v-1h3.76v1Zm0,2.71h3.76v1H68.67ZM105,46.48v1.05h-3.84V46.48Zm-8.43-1.85h3.72v1H96.59Zm3.72,1.92v.9H96.59v-.9Zm-4.59-.07v1.05H91.89V46.48ZM87.3,44.63H91v1H87.3ZM91,46.55v.9H87.3v-.9Zm-4.59-.07v1.05H82.59V46.48ZM78,44.63h3.69v1H78Zm3.69,1.92v.9H78v-.9Zm-4.63-.07v1.05H73.26V46.48Zm4.63,2.81H78v-1h3.69Zm9.25,0H87.3v-1H91Zm9.33,0H96.59v-1h3.72Zm9.3,0h-3.76V48.4h3.76Zm0-4.66v1h-3.76v-1Zm.86,1.85V43.76H105v1.85h-3.8V43.76H95.72v1.85H91.89V43.76H86.43v1.85H82.59V43.76H77.17v1.85H73.3V43.76H67.81v2.72H72.4v1H67.81v2.71H73.3V48.4h3.87v1.76h5.42V48.4h3.84v1.76h5.42V48.4h3.87v1.76h5.46V48.4H105v1.76h5.49V47.53h-4.59V46.48Zm-41.8-.87v-1h3.76v1Zm0,2.71h3.76v1H68.67ZM105,46.48v1.05h-3.84V46.48Zm-8.43-1.85h3.72v1H96.59Zm3.72,1.92v.9H96.59v-.9Zm-4.59-.07v1.05H91.89V46.48ZM87.3,44.63H91v1H87.3ZM91,46.55v.9H87.3v-.9Zm-4.59-.07v1.05H82.59V46.48ZM78,44.63h3.69v1H78Zm3.69,1.92v.9H78v-.9Zm-4.63-.07v1.05H73.26V46.48Zm4.63,2.81H78v-1h3.69Zm9.25,0H87.3v-1H91Zm9.33,0H96.59v-1h3.72Zm9.3,0h-3.76V48.4h3.76Zm0-4.66v1h-3.76v-1Zm.86,1.85V43.76H105v1.85h-3.8V43.76H95.72v1.85H91.89V43.76H86.43v1.85H82.59V43.76H77.17v1.85H73.3V43.76H67.81v2.72H72.4v1H67.81v2.71H73.3V48.4h3.87v1.76h5.42V48.4h3.84v1.76h5.42V48.4h3.87v1.76h5.46V48.4H105v1.76h5.49V47.53h-4.59V46.48Zm-41.8-.87v-1h3.76v1Zm0,2.71h3.76v1H68.67ZM105,46.48v1.05h-3.84V46.48Zm-8.43-1.85h3.72v1H96.59Zm3.72,1.92v.9H96.59v-.9Zm-4.59-.07v1.05H91.89V46.48ZM87.3,44.63H91v1H87.3ZM91,46.55v.9H87.3v-.9Zm-4.59-.07v1.05H82.59V46.48ZM78,44.63h3.69v1H78Zm3.69,1.92v.9H78v-.9Zm-4.63-.07v1.05H73.26V46.48Zm4.63,2.81H78v-1h3.69Zm9.25,0H87.3v-1H91Zm9.33,0H96.59v-1h3.72Zm9.3,0h-3.76V48.4h3.76Zm0-4.66v1h-3.76v-1Zm.86,1.85V43.76H105v1.85h-3.8V43.76H95.72v1.85H91.89V43.76H86.43v1.85H82.59V43.76H77.17v1.85H73.3V43.76H67.81v2.72H72.4v1H67.81v2.71H73.3V48.4h3.87v1.76h5.42V48.4h3.84v1.76h5.42V48.4h3.87v1.76h5.46V48.4H105v1.76h5.49V47.53h-4.59V46.48Zm-41.8-.87v-1h3.76v1Zm0,2.71h3.76v1H68.67ZM105,46.48v1.05h-3.84V46.48Zm-8.43-1.85h3.72v1H96.59Zm3.72,1.92v.9H96.59v-.9Zm-4.59-.07v1.05H91.89V46.48ZM87.3,44.63H91v1H87.3ZM91,46.55v.9H87.3v-.9Zm-4.59-.07v1.05H82.59V46.48ZM78,44.63h3.69v1H78Zm3.69,1.92v.9H78v-.9Zm-4.63-.07v1.05H73.26V46.48Zm4.63,2.81H78v-1h3.69Zm9.25,0H87.3v-1H91Zm9.33,0H96.59v-1h3.72Zm9.3,0h-3.76V48.4h3.76Zm0-4.66v1h-3.76v-1Zm.86,1.85V43.76H105v1.85h-3.8V43.76H95.72v1.85H91.89V43.76H86.43v1.85H82.59V43.76H77.17v1.85H73.3V43.76H67.81v2.72H72.4v1H67.81v2.71H73.3V48.4h3.87v1.76h5.42V48.4h3.84v1.76h5.42V48.4h3.87v1.76h5.46V48.4H105v1.76h5.49V47.53h-4.59V46.48Zm-41.8-.87v-1h3.76v1Zm0,2.71h3.76v1H68.67ZM105,46.48v1.05h-3.84V46.48Zm-8.43-1.85h3.72v1H96.59Zm3.72,1.92v.9H96.59v-.9Zm-4.59-.07v1.05H91.89V46.48ZM87.3,44.63H91v1H87.3ZM91,46.55v.9H87.3v-.9Zm-4.59-.07v1.05H82.59V46.48ZM78,44.63h3.69v1H78Zm3.69,1.92v.9H78v-.9Zm-4.63-.07v1.05H73.26V46.48Zm4.63,2.81H78v-1h3.69Zm9.25,0H87.3v-1H91Zm9.33,0H96.59v-1h3.72Zm9.3,0h-3.76V48.4h3.76Zm0-4.66v1h-3.76v-1Zm.86,1.85V43.76H105v1.85h-3.8V43.76H95.72v1.85H91.89V43.76H86.43v1.85H82.59V43.76H77.17v1.85H73.3V43.76H67.81v2.72H72.4v1H67.81v2.71H73.3V48.4h3.87v1.76h5.42V48.4h3.84v1.76h5.42V48.4h3.87v1.76h5.46V48.4H105v1.76h5.49V47.53h-4.59V46.48Zm-41.8-.87v-1h3.76v1Zm0,2.71h3.76v1H68.67ZM105,46.48v1.05h-3.84V46.48Zm-8.43-1.85h3.72v1H96.59Zm3.72,1.92v.9H96.59v-.9Zm-4.59-.07v1.05H91.89V46.48ZM87.3,44.63H91v1H87.3ZM91,46.55v.9H87.3v-.9Zm-4.59-.07v1.05H82.59V46.48ZM78,44.63h3.69v1H78Zm3.69,1.92v.9H78v-.9Zm-4.63-.07v1.05H73.26V46.48Zm4.63,2.81H78v-1h3.69Zm9.25,0H87.3v-1H91Zm9.33,0H96.59v-1h3.72Zm9.3,0h-3.76V48.4h3.76Zm0-4.66v1h-3.76v-1Zm.86,1.85V43.76H105v1.85h-3.8V43.76H95.72v1.85H91.89V43.76H86.43v1.85H82.59V43.76H77.17v1.85H73.3V43.76H67.81v2.72H72.4v1H67.81v2.71H73.3V48.4h3.87v1.76h5.42V48.4h3.84v1.76h5.42V48.4h3.87v1.76h5.46V48.4H105v1.76h5.49V47.53h-4.59V46.48Zm-41.8-.87v-1h3.76v1Zm0,2.71h3.76v1H68.67ZM105,46.48v1.05h-3.84V46.48Zm-8.43-1.85h3.72v1H96.59Zm3.72,1.92v.9H96.59v-.9Zm-4.59-.07v1.05H91.89V46.48ZM87.3,44.63H91v1H87.3ZM91,46.55v.9H87.3v-.9Zm-4.59-.07v1.05H82.59V46.48ZM78,44.63h3.69v1H78Zm3.69,1.92v.9H78v-.9Zm-4.63-.07v1.05H73.26V46.48Zm4.63,2.81H78v-1h3.69Zm9.25,0H87.3v-1H91Zm9.33,0H96.59v-1h3.72Zm9.3,0h-3.76V48.4h3.76Zm0-4.66v1h-3.76v-1Zm.86,1.85V43.76H105v1.85h-3.8V43.76H95.72v1.85H91.89V43.76H86.43v1.85H82.59V43.76H77.17v1.85H73.3V43.76H67.81v2.72H72.4v1H67.81v2.71H73.3V48.4h3.87v1.76h5.42V48.4h3.84v1.76h5.42V48.4h3.87v1.76h5.46V48.4H105v1.76h5.49V47.53h-4.59V46.48Zm-41.8-.87v-1h3.76v1Zm0,2.71h3.76v1H68.67ZM105,46.48v1.05h-3.84V46.48Zm-8.43-1.85h3.72v1H96.59Zm3.72,1.92v.9H96.59v-.9Zm-4.59-.07v1.05H91.89V46.48ZM87.3,44.63H91v1H87.3ZM91,46.55v.9H87.3v-.9Zm-4.59-.07v1.05H82.59V46.48ZM78,44.63h3.69v1H78Zm3.69,1.92v.9H78v-.9Zm-4.63-.07v1.05H73.26V46.48Zm4.63,2.81H78v-1h3.69Zm9.25,0H87.3v-1H91Zm9.33,0H96.59v-1h3.72Zm9.3,0h-3.76V48.4h3.76Zm0-4.66v1h-3.76v-1Zm.86,1.85V43.76H105v1.85h-3.8V43.76H95.72v1.85H91.89V43.76H86.43v1.85H82.59V43.76H77.17v1.85H73.3V43.76H67.81v2.72H72.4v1H67.81v2.71H73.3V48.4h3.87v1.76h5.42V48.4h3.84v1.76h5.42V48.4h3.87v1.76h5.46V48.4H105v1.76h5.49V47.53h-4.59V46.48Zm-41.8-.87v-1h3.76v1Zm0,2.71h3.76v1H68.67ZM105,46.48v1.05h-3.84V46.48Zm-8.43-1.85h3.72v1H96.59Zm3.72,1.92v.9H96.59v-.9Zm-4.59-.07v1.05H91.89V46.48ZM87.3,44.63H91v1H87.3ZM91,46.55v.9H87.3v-.9Zm-4.59-.07v1.05H82.59V46.48ZM78,44.63h3.69v1H78Zm3.69,1.92v.9H78v-.9Zm-4.63-.07v1.05H73.26V46.48Zm4.63,2.81H78v-1h3.69Zm9.25,0H87.3v-1H91Zm9.33,0H96.59v-1h3.72Zm9.3,0h-3.76V48.4h3.76Zm0-4.66v1h-3.76v-1Zm.86,1.85V43.76H105v1.85h-3.8V43.76H95.72v1.85H91.89V43.76H86.43v1.85H82.59V43.76H77.17v1.85H73.3V43.76H67.81v2.72H72.4v1H67.81v2.71H73.3V48.4h3.87v1.76h5.42V48.4h3.84v1.76h5.42V48.4h3.87v1.76h5.46V48.4H105v1.76h5.49V47.53h-4.59V46.48Zm-41.8-.87v-1h3.76v1Zm0,2.71h3.76v1H68.67ZM105,46.48v1.05h-3.84V46.48Zm-8.43-1.85h3.72v1H96.59Zm3.72,1.92v.9H96.59v-.9Zm-4.59-.07v1.05H91.89V46.48ZM87.3,44.63H91v1H87.3ZM91,46.55v.9H87.3v-.9Zm-4.59-.07v1.05H82.59V46.48ZM78,44.63h3.69v1H78Zm3.69,1.92v.9H78v-.9Zm-4.63-.07v1.05H73.26V46.48Zm4.63,2.81H78v-1h3.69Zm9.25,0H87.3v-1H91Zm9.33,0H96.59v-1h3.72Zm9.3,0h-3.76V48.4h3.76Zm0-4.66v1h-3.76v-1Zm6.29,2.07-2.4-5.27H65.08l-2.47,5.35a13.55,13.55,0,0,0-1.54,5.42v4.06h56.59V54.43A18.53,18.53,0,0,0,115.9,46.7Zm.89,8.69H61.94V52.2a13.05,13.05,0,0,1,1.46-5.06l2.24-4.84H113l2.16,4.76a17.67,17.67,0,0,1,1.68,7.37ZM105,45.61h-3.8V43.76H95.72v1.85H91.89V43.76H86.43v1.85H82.59V43.76H77.17v1.85H73.3V43.76H67.81v2.72H72.4v1H67.81v2.71H73.3V48.4h3.87v1.76h5.42V48.4h3.84v1.76h5.42V48.4h3.87v1.76h5.46V48.4H105v1.76h5.49V47.53h-4.59V46.48h4.59V43.76H105Zm4.63,2.79v.89h-3.76V48.4Zm0-2.79h-3.76v-1h3.76Zm-40.94,0v-1h3.76v1Zm0,2.71h3.76v1H68.67Zm27.92-3.69h3.72v1H96.59Zm3.72,1.92v.9H96.59v-.9Zm-4.59-.07v1.05H91.89V46.48ZM87.3,44.63H91v1H87.3ZM91,46.55v.9H87.3v-.9Zm-4.59-.07v1.05H82.59V46.48ZM78,44.63h3.69v1H78Zm3.69,1.92v.9H78v-.9Zm-4.63-.07v1.05H73.26V46.48Zm4.63,2.81H78v-1h3.69Zm9.25,0H87.3v-1H91Zm9.33,0H96.59v-1h3.72Zm.87-1.76V46.48H105v1.05Zm9.29-1.05V43.76H105v1.85h-3.8V43.76H95.72v1.85H91.89V43.76H86.43v1.85H82.59V43.76H77.17v1.85H73.3V43.76H67.81v2.72H72.4v1H67.81v2.71H73.3V48.4h3.87v1.76h5.42V48.4h3.84v1.76h5.42V48.4h3.87v1.76h5.46V48.4H105v1.76h5.49V47.53h-4.59V46.48Zm-41.8-.87v-1h3.76v1Zm0,2.71h3.76v1H68.67ZM105,46.48v1.05h-3.84V46.48Zm-8.43-1.85h3.72v1H96.59Zm3.72,1.92v.9H96.59v-.9Zm-4.59-.07v1.05H91.89V46.48ZM87.3,44.63H91v1H87.3ZM91,46.55v.9H87.3v-.9Zm-4.59-.07v1.05H82.59V46.48ZM78,44.63h3.69v1H78Zm3.69,1.92v.9H78v-.9Zm-4.63-.07v1.05H73.26V46.48Zm4.63,2.81H78v-1h3.69Zm9.25,0H87.3v-1H91Zm9.33,0H96.59v-1h3.72Zm9.3,0h-3.76V48.4h3.76Zm0-4.66v1h-3.76v-1Zm.86,1.85V43.76H105v1.85h-3.8V43.76H95.72v1.85H91.89V43.76H86.43v1.85H82.59V43.76H77.17v1.85H73.3V43.76H67.81v2.72H72.4v1H67.81v2.71H73.3V48.4h3.87v1.76h5.42V48.4h3.84v1.76h5.42V48.4h3.87v1.76h5.46V48.4H105v1.76h5.49V47.53h-4.59V46.48Zm-41.8-.87v-1h3.76v1Zm0,2.71h3.76v1H68.67ZM105,46.48v1.05h-3.84V46.48Zm-8.43-1.85h3.72v1H96.59Zm3.72,1.92v.9H96.59v-.9Zm-4.59-.07v1.05H91.89V46.48ZM87.3,44.63H91v1H87.3ZM91,46.55v.9H87.3v-.9Zm-4.59-.07v1.05H82.59V46.48ZM78,44.63h3.69v1H78Zm3.69,1.92v.9H78v-.9Zm-4.63-.07v1.05H73.26V46.48Zm4.63,2.81H78v-1h3.69Zm9.25,0H87.3v-1H91Zm9.33,0H96.59v-1h3.72Zm9.3,0h-3.76V48.4h3.76Zm0-4.66v1h-3.76v-1Zm.86,1.85V43.76H105v1.85h-3.8V43.76H95.72v1.85H91.89V43.76H86.43v1.85H82.59V43.76H77.17v1.85H73.3V43.76H67.81v2.72H72.4v1H67.81v2.71H73.3V48.4h3.87v1.76h5.42V48.4h3.84v1.76h5.42V48.4h3.87v1.76h5.46V48.4H105v1.76h5.49V47.53h-4.59V46.48Zm-41.8-.87v-1h3.76v1Zm0,2.71h3.76v1H68.67ZM105,46.48v1.05h-3.84V46.48Zm-8.43-1.85h3.72v1H96.59Zm3.72,1.92v.9H96.59v-.9Zm-4.59-.07v1.05H91.89V46.48ZM87.3,44.63H91v1H87.3ZM91,46.55v.9H87.3v-.9Zm-4.59-.07v1.05H82.59V46.48ZM78,44.63h3.69v1H78Zm3.69,1.92v.9H78v-.9Zm-4.63-.07v1.05H73.26V46.48Zm4.63,2.81H78v-1h3.69Zm9.25,0H87.3v-1H91Zm9.33,0H96.59v-1h3.72Zm9.3,0h-3.76V48.4h3.76Zm0-4.66v1h-3.76v-1Zm.86,1.85V43.76H105v1.85h-3.8V43.76H95.72v1.85H91.89V43.76H86.43v1.85H82.59V43.76H77.17v1.85H73.3V43.76H67.81v2.72H72.4v1H67.81v2.71H73.3V48.4h3.87v1.76h5.42V48.4h3.84v1.76h5.42V48.4h3.87v1.76h5.46V48.4H105v1.76h5.49V47.53h-4.59V46.48Zm-41.8-.87v-1h3.76v1Zm0,2.71h3.76v1H68.67ZM105,46.48v1.05h-3.84V46.48Zm-8.43-1.85h3.72v1H96.59Zm3.72,1.92v.9H96.59v-.9Zm-4.59-.07v1.05H91.89V46.48ZM87.3,44.63H91v1H87.3ZM91,46.55v.9H87.3v-.9Zm-4.59-.07v1.05H82.59V46.48ZM78,44.63h3.69v1H78Zm3.69,1.92v.9H78v-.9Zm-4.63-.07v1.05H73.26V46.48Zm4.63,2.81H78v-1h3.69Zm9.25,0H87.3v-1H91Zm9.33,0H96.59v-1h3.72Zm9.3,0h-3.76V48.4h3.76Zm0-4.66v1h-3.76v-1Zm.86,1.85V43.76H105v1.85h-3.8V43.76H95.72v1.85H91.89V43.76H86.43v1.85H82.59V43.76H77.17v1.85H73.3V43.76H67.81v2.72H72.4v1H67.81v2.71H73.3V48.4h3.87v1.76h5.42V48.4h3.84v1.76h5.42V48.4h3.87v1.76h5.46V48.4H105v1.76h5.49V47.53h-4.59V46.48Zm-41.8-.87v-1h3.76v1Zm0,2.71h3.76v1H68.67ZM105,46.48v1.05h-3.84V46.48Zm-8.43-1.85h3.72v1H96.59Zm3.72,1.92v.9H96.59v-.9Zm-4.59-.07v1.05H91.89V46.48ZM87.3,44.63H91v1H87.3ZM91,46.55v.9H87.3v-.9Zm-4.59-.07v1.05H82.59V46.48ZM78,44.63h3.69v1H78Zm3.69,1.92v.9H78v-.9Zm-4.63-.07v1.05H73.26V46.48Zm4.63,2.81H78v-1h3.69Zm9.25,0H87.3v-1H91Zm9.33,0H96.59v-1h3.72Zm9.3,0h-3.76V48.4h3.76Zm0-4.66v1h-3.76v-1Zm.86,1.85V43.76H105v1.85h-3.8V43.76H95.72v1.85H91.89V43.76H86.43v1.85H82.59V43.76H77.17v1.85H73.3V43.76H67.81v2.72H72.4v1H67.81v2.71H73.3V48.4h3.87v1.76h5.42V48.4h3.84v1.76h5.42V48.4h3.87v1.76h5.46V48.4H105v1.76h5.49V47.53h-4.59V46.48Zm-41.8-.87v-1h3.76v1Zm0,2.71h3.76v1H68.67ZM105,46.48v1.05h-3.84V46.48Zm-8.43-1.85h3.72v1H96.59Zm3.72,1.92v.9H96.59v-.9Zm-4.59-.07v1.05H91.89V46.48ZM87.3,44.63H91v1H87.3ZM91,46.55v.9H87.3v-.9Zm-4.59-.07v1.05H82.59V46.48ZM78,44.63h3.69v1H78Zm3.69,1.92v.9H78v-.9Zm-4.63-.07v1.05H73.26V46.48Zm4.63,2.81H78v-1h3.69Zm9.25,0H87.3v-1H91Zm9.33,0H96.59v-1h3.72Zm9.3,0h-3.76V48.4h3.76Zm0-4.66v1h-3.76v-1Zm.86,1.85V43.76H105v1.85h-3.8V43.76H95.72v1.85H91.89V43.76H86.43v1.85H82.59V43.76H77.17v1.85H73.3V43.76H67.81v2.72H72.4v1H67.81v2.71H73.3V48.4h3.87v1.76h5.42V48.4h3.84v1.76h5.42V48.4h3.87v1.76h5.46V48.4H105v1.76h5.49V47.53h-4.59V46.48Zm-41.8-.87v-1h3.76v1Zm0,2.71h3.76v1H68.67ZM105,46.48v1.05h-3.84V46.48Zm-8.43-1.85h3.72v1H96.59Zm3.72,1.92v.9H96.59v-.9Zm-4.59-.07v1.05H91.89V46.48ZM87.3,44.63H91v1H87.3ZM91,46.55v.9H87.3v-.9Zm-4.59-.07v1.05H82.59V46.48ZM78,44.63h3.69v1H78Zm3.69,1.92v.9H78v-.9Zm-4.63-.07v1.05H73.26V46.48Zm4.63,2.81H78v-1h3.69Zm9.25,0H87.3v-1H91Zm9.33,0H96.59v-1h3.72Zm9.3,0h-3.76V48.4h3.76Zm0-4.66v1h-3.76v-1Zm.86,1.85V43.76H105v1.85h-3.8V43.76H95.72v1.85H91.89V43.76H86.43v1.85H82.59V43.76H77.17v1.85H73.3V43.76H67.81v2.72H72.4v1H67.81v2.71H73.3V48.4h3.87v1.76h5.42V48.4h3.84v1.76h5.42V48.4h3.87v1.76h5.46V48.4H105v1.76h5.49V47.53h-4.59V46.48Zm-41.8-.87v-1h3.76v1Zm0,2.71h3.76v1H68.67ZM105,46.48v1.05h-3.84V46.48Zm-8.43-1.85h3.72v1H96.59Zm3.72,1.92v.9H96.59v-.9Zm-4.59-.07v1.05H91.89V46.48ZM87.3,44.63H91v1H87.3ZM91,46.55v.9H87.3v-.9Zm-4.59-.07v1.05H82.59V46.48ZM78,44.63h3.69v1H78Zm3.69,1.92v.9H78v-.9Zm-4.63-.07v1.05H73.26V46.48Zm4.63,2.81H78v-1h3.69Zm9.25,0H87.3v-1H91Zm9.33,0H96.59v-1h3.72Zm9.3,0h-3.76V48.4h3.76Zm0-4.66v1h-3.76v-1Zm.86,1.85V43.76H105v1.85h-3.8V43.76H95.72v1.85H91.89V43.76H86.43v1.85H82.59V43.76H77.17v1.85H73.3V43.76H67.81v2.72H72.4v1H67.81v2.71H73.3V48.4h3.87v1.76h5.42V48.4h3.84v1.76h5.42V48.4h3.87v1.76h5.46V48.4H105v1.76h5.49V47.53h-4.59V46.48Zm-41.8-.87v-1h3.76v1Zm0,2.71h3.76v1H68.67ZM105,46.48v1.05h-3.84V46.48Zm-8.43-1.85h3.72v1H96.59Zm3.72,1.92v.9H96.59v-.9Zm-4.59-.07v1.05H91.89V46.48ZM87.3,44.63H91v1H87.3ZM91,46.55v.9H87.3v-.9Zm-4.59-.07v1.05H82.59V46.48ZM78,44.63h3.69v1H78Zm3.69,1.92v.9H78v-.9Zm-4.63-.07v1.05H73.26V46.48Zm4.63,2.81H78v-1h3.69Zm9.25,0H87.3v-1H91Zm9.33,0H96.59v-1h3.72Zm9.3,0h-3.76V48.4h3.76Zm0-4.66v1h-3.76v-1Zm.86,1.85V43.76H105v1.85h-3.8V43.76H95.72v1.85H91.89V43.76H86.43v1.85H82.59V43.76H77.17v1.85H73.3V43.76H67.81v2.72H72.4v1H67.81v2.71H73.3V48.4h3.87v1.76h5.42V48.4h3.84v1.76h5.42V48.4h3.87v1.76h5.46V48.4H105v1.76h5.49V47.53h-4.59V46.48Zm-41.8-.87v-1h3.76v1Zm0,2.71h3.76v1H68.67ZM105,46.48v1.05h-3.84V46.48Zm-8.43-1.85h3.72v1H96.59Zm3.72,1.92v.9H96.59v-.9Zm-4.59-.07v1.05H91.89V46.48ZM87.3,44.63H91v1H87.3ZM91,46.55v.9H87.3v-.9Zm-4.59-.07v1.05H82.59V46.48ZM78,44.63h3.69v1H78Zm3.69,1.92v.9H78v-.9Zm-4.63-.07v1.05H73.26V46.48Zm4.63,2.81H78v-1h3.69Zm9.25,0H87.3v-1H91Zm9.33,0H96.59v-1h3.72Zm9.3,0h-3.76V48.4h3.76Zm0-4.66v1h-3.76v-1Zm6.29,2.07-2.4-5.27H65.08l-2.47,5.35a13.55,13.55,0,0,0-1.54,5.42v4.06h56.59V54.43A18.53,18.53,0,0,0,115.9,46.7Zm.89,8.69H61.94V52.2a13.05,13.05,0,0,1,1.46-5.06l2.24-4.84H113l2.16,4.76a17.67,17.67,0,0,1,1.68,7.37ZM105,45.61h-3.8V43.76H95.72v1.85H91.89V43.76H86.43v1.85H82.59V43.76H77.17v1.85H73.3V43.76H67.81v2.72H72.4v1H67.81v2.71H73.3V48.4h3.87v1.76h5.42V48.4h3.84v1.76h5.42V48.4h3.87v1.76h5.46V48.4H105v1.76h5.49V47.53h-4.59V46.48h4.59V43.76H105Zm4.63,2.79v.89h-3.76V48.4Zm0-2.79h-3.76v-1h3.76Zm-40.94,0v-1h3.76v1Zm0,2.71h3.76v1H68.67Zm27.92-3.69h3.72v1H96.59Zm3.72,1.92v.9H96.59v-.9Zm-4.59-.07v1.05H91.89V46.48ZM87.3,44.63H91v1H87.3ZM91,46.55v.9H87.3v-.9Zm-4.59-.07v1.05H82.59V46.48ZM78,44.63h3.69v1H78Zm3.69,1.92v.9H78v-.9Zm-4.63-.07v1.05H73.26V46.48Zm4.63,2.81H78v-1h3.69Zm9.25,0H87.3v-1H91Zm9.33,0H96.59v-1h3.72Zm.87-1.76V46.48H105v1.05Zm9.29-1.05V43.76H105v1.85h-3.8V43.76H95.72v1.85H91.89V43.76H86.43v1.85H82.59V43.76H77.17v1.85H73.3V43.76H67.81v2.72H72.4v1H67.81v2.71H73.3V48.4h3.87v1.76h5.42V48.4h3.84v1.76h5.42V48.4h3.87v1.76h5.46V48.4H105v1.76h5.49V47.53h-4.59V46.48Zm-41.8-.87v-1h3.76v1Zm0,2.71h3.76v1H68.67ZM105,46.48v1.05h-3.84V46.48Zm-8.43-1.85h3.72v1H96.59Zm3.72,1.92v.9H96.59v-.9Zm-4.59-.07v1.05H91.89V46.48ZM87.3,44.63H91v1H87.3ZM91,46.55v.9H87.3v-.9Zm-4.59-.07v1.05H82.59V46.48ZM78,44.63h3.69v1H78Zm3.69,1.92v.9H78v-.9Zm-4.63-.07v1.05H73.26V46.48Zm4.63,2.81H78v-1h3.69Zm9.25,0H87.3v-1H91Zm9.33,0H96.59v-1h3.72Zm9.3,0h-3.76V48.4h3.76Zm0-4.66v1h-3.76v-1Zm.86,1.85V43.76H105v1.85h-3.8V43.76H95.72v1.85H91.89V43.76H86.43v1.85H82.59V43.76H77.17v1.85H73.3V43.76H67.81v2.72H72.4v1H67.81v2.71H73.3V48.4h3.87v1.76h5.42V48.4h3.84v1.76h5.42V48.4h3.87v1.76h5.46V48.4H105v1.76h5.49V47.53h-4.59V46.48Zm-41.8-.87v-1h3.76v1Zm0,2.71h3.76v1H68.67ZM105,46.48v1.05h-3.84V46.48Zm-8.43-1.85h3.72v1H96.59Zm3.72,1.92v.9H96.59v-.9Zm-4.59-.07v1.05H91.89V46.48ZM87.3,44.63H91v1H87.3ZM91,46.55v.9H87.3v-.9Zm-4.59-.07v1.05H82.59V46.48ZM78,44.63h3.69v1H78Zm3.69,1.92v.9H78v-.9Zm-4.63-.07v1.05H73.26V46.48Zm4.63,2.81H78v-1h3.69Zm9.25,0H87.3v-1H91Zm9.33,0H96.59v-1h3.72Zm9.3,0h-3.76V48.4h3.76Zm0-4.66v1h-3.76v-1Zm.86,1.85V43.76H105v1.85h-3.8V43.76H95.72v1.85H91.89V43.76H86.43v1.85H82.59V43.76H77.17v1.85H73.3V43.76H67.81v2.72H72.4v1H67.81v2.71H73.3V48.4h3.87v1.76h5.42V48.4h3.84v1.76h5.42V48.4h3.87v1.76h5.46V48.4H105v1.76h5.49V47.53h-4.59V46.48Zm-41.8-.87v-1h3.76v1Zm0,2.71h3.76v1H68.67ZM105,46.48v1.05h-3.84V46.48Zm-8.43-1.85h3.72v1H96.59Zm3.72,1.92v.9H96.59v-.9Zm-4.59-.07v1.05H91.89V46.48ZM87.3,44.63H91v1H87.3ZM91,46.55v.9H87.3v-.9Zm-4.59-.07v1.05H82.59V46.48ZM78,44.63h3.69v1H78Zm3.69,1.92v.9H78v-.9Zm-4.63-.07v1.05H73.26V46.48Zm4.63,2.81H78v-1h3.69Zm9.25,0H87.3v-1H91Zm9.33,0H96.59v-1h3.72Zm9.3,0h-3.76V48.4h3.76Zm0-4.66v1h-3.76v-1Zm.86,1.85V43.76H105v1.85h-3.8V43.76H95.72v1.85H91.89V43.76H86.43v1.85H82.59V43.76H77.17v1.85H73.3V43.76H67.81v2.72H72.4v1H67.81v2.71H73.3V48.4h3.87v1.76h5.42V48.4h3.84v1.76h5.42V48.4h3.87v1.76h5.46V48.4H105v1.76h5.49V47.53h-4.59V46.48Zm-41.8-.87v-1h3.76v1Zm0,2.71h3.76v1H68.67ZM105,46.48v1.05h-3.84V46.48Zm-8.43-1.85h3.72v1H96.59Zm3.72,1.92v.9H96.59v-.9Zm-4.59-.07v1.05H91.89V46.48ZM87.3,44.63H91v1H87.3ZM91,46.55v.9H87.3v-.9Zm-4.59-.07v1.05H82.59V46.48ZM78,44.63h3.69v1H78Zm3.69,1.92v.9H78v-.9Zm-4.63-.07v1.05H73.26V46.48Zm4.63,2.81H78v-1h3.69Zm9.25,0H87.3v-1H91Zm9.33,0H96.59v-1h3.72Zm9.3,0h-3.76V48.4h3.76Zm0-4.66v1h-3.76v-1Zm.86,1.85V43.76H105v1.85h-3.8V43.76H95.72v1.85H91.89V43.76H86.43v1.85H82.59V43.76H77.17v1.85H73.3V43.76H67.81v2.72H72.4v1H67.81v2.71H73.3V48.4h3.87v1.76h5.42V48.4h3.84v1.76h5.42V48.4h3.87v1.76h5.46V48.4H105v1.76h5.49V47.53h-4.59V46.48Zm-41.8-.87v-1h3.76v1Zm0,2.71h3.76v1H68.67ZM105,46.48v1.05h-3.84V46.48Zm-8.43-1.85h3.72v1H96.59Zm3.72,1.92v.9H96.59v-.9Zm-4.59-.07v1.05H91.89V46.48ZM87.3,44.63H91v1H87.3ZM91,46.55v.9H87.3v-.9Zm-4.59-.07v1.05H82.59V46.48ZM78,44.63h3.69v1H78Zm3.69,1.92v.9H78v-.9Zm-4.63-.07v1.05H73.26V46.48Zm4.63,2.81H78v-1h3.69Zm9.25,0H87.3v-1H91Zm9.33,0H96.59v-1h3.72Zm9.3,0h-3.76V48.4h3.76Zm0-4.66v1h-3.76v-1Zm.86,1.85V43.76H105v1.85h-3.8V43.76H95.72v1.85H91.89V43.76H86.43v1.85H82.59V43.76H77.17v1.85H73.3V43.76H67.81v2.72H72.4v1H67.81v2.71H73.3V48.4h3.87v1.76h5.42V48.4h3.84v1.76h5.42V48.4h3.87v1.76h5.46V48.4H105v1.76h5.49V47.53h-4.59V46.48Zm-41.8-.87v-1h3.76v1Zm0,2.71h3.76v1H68.67ZM105,46.48v1.05h-3.84V46.48Zm-8.43-1.85h3.72v1H96.59Zm3.72,1.92v.9H96.59v-.9Zm-4.59-.07v1.05H91.89V46.48ZM87.3,44.63H91v1H87.3ZM91,46.55v.9H87.3v-.9Zm-4.59-.07v1.05H82.59V46.48ZM78,44.63h3.69v1H78Zm3.69,1.92v.9H78v-.9Zm-4.63-.07v1.05H73.26V46.48Zm4.63,2.81H78v-1h3.69Zm9.25,0H87.3v-1H91Zm9.33,0H96.59v-1h3.72Zm9.3,0h-3.76V48.4h3.76Zm0-4.66v1h-3.76v-1Z"/><path class="cls-2" d="M63.86,1.55V38.61h51V1.55Zm2.27,34.79V3.83H112.6V36.34Z"/><path class="cls-2" d="M110.12,6.31c-.73-.73-2.37-1.07-5.17-1.07H73.78c-2.8,0-4.44.34-5.17,1.07s-1.07,2.34-1.07,5.08V28.77c0,2.68.36,4.34,1.09,5.05s2.38,1.07,5.15,1.07H105c2.77,0,4.41-.34,5.15-1.07s1.09-2.37,1.09-5.05V11.39C111.19,8.69,110.84,7,110.12,6.31ZM89.69,15.37v-4H98.6V27.52H91.34V15.37Zm-9.56,0v-4H89V27.52H81.81V15.37Z"/><path class="cls-1" d="M46.41,48.11,40.12,36.7c-3.3-6-6.64-10.34-9.93-12.91l-12-9.41A14,14,0,0,0,13.6,4.29C10.79,1.8,6.86.39,1.92.11L0,0,1.62,1A6.65,6.65,0,0,1,5,6.94v1c0,5.48,2.92,8.79,8.68,9.82l6.43,13.82c1.78,3.79,5.35,8.12,10.62,12.89l8.65,7.92c.38.35,1,.88,1.85,1.61s1.92,1.6,2.79,2.34c2.08,1.78,3.51,2.61,4.51,2.61a1.9,1.9,0,0,0,2.05-2.12C50.6,56.29,50.12,54.81,46.41,48.11ZM24.69,22.05a9.15,9.15,0,0,1-5,3.87l-.42.13-4.48-9.46.62-.14a1.22,1.22,0,0,0,1-.77l.25-.63,8.26,6.62Z"/></g></g></svg>