<svg xmlns="http://www.w3.org/2000/svg" viewBox="0 0 66.69 58.45"><defs><style>.cls-1{fill:#1d1d1b;}</style></defs><title>Asset 11</title><g id="Layer_2" data-name="Layer 2"><g id="Crop_Marks" data-name="Crop Marks"><path class="cls-1" d="M15.49,58a21.27,21.27,0,0,1-8.32-1.76l-.26-.1V51A26.62,26.62,0,0,1,.63,42.9l0-.06v-.07a18.57,18.57,0,0,1-.19-2.2,14.31,14.31,0,0,1,.7-4.21L.56,35.1.49,33.78C.49,29.93,1.93,28,4.78,28H5A5.49,5.49,0,0,1,6.33,25.1a4.05,4.05,0,0,1,3-1.13,4.86,4.86,0,0,1,1.49.27,4.61,4.61,0,0,1,1.36-2.15,3.88,3.88,0,0,1,2.59-.89,3.89,3.89,0,0,1,2,.51,3.65,3.65,0,0,1,.9.73l.09-.37.14-12.88a16,16,0,0,1,1-6.44A3.49,3.49,0,0,1,22.19.41a3.57,3.57,0,0,1,3.5,2.25c.63,1.41.94,3.77.94,7.22l.31,14.48,1.36,1.46.91,10.12,0,.08a72.89,72.89,0,0,1-4.61,12.12V56l-.24.12A20.76,20.76,0,0,1,15.49,58ZM9.61,54.38a20.11,20.11,0,0,0,6.1,1A18.48,18.48,0,0,0,22,54.25V47.92l0-.07c2.4-6,3.92-10,4.52-12.1l-.77-8.89L21,21.74a4.76,4.76,0,0,0-1,3c0,1.92,1,3.88,3.07,5.82l.23.22-.16.28a13.16,13.16,0,0,0-1.81,6.58l.06,1-2.58-.1-.07-.76a9.79,9.79,0,0,1-4,3.38l-.4.21-.87-2A9.94,9.94,0,0,1,9.61,43l-.39.24-.93-2.06a10,10,0,0,1-3.53,2.53l-.38.16L2.92,40.39a7.08,7.08,0,0,0-.06.79A8.36,8.36,0,0,0,3,42.29a26.06,26.06,0,0,0,6.47,7.22l.16.12Zm-4-14.25A9.49,9.49,0,0,0,7,38.42l-2.1-4.69V30.6c-.9.1-1.87.63-1.87,2.9l0,1.3Zm4.7-.78A5.46,5.46,0,0,0,12,35.86l-1.64-3.71,0-5.13a2.28,2.28,0,0,0-1.09-.36,1.48,1.48,0,0,0-1.34.7,4.49,4.49,0,0,0-.51,2.42l.08,3.16Zm5.18-1.66a4,4,0,0,0,1.69-3.47,4.56,4.56,0,0,0-.26-1.47,6.51,6.51,0,0,0-.78-1.53l-.07-.11V26.38a4.27,4.27,0,0,0-.36-2,.94.94,0,0,0-.88-.52,1.46,1.46,0,0,0-1.38.86,6.38,6.38,0,0,0-.54,3l0,3.71Zm3.24-7.31a9.36,9.36,0,0,1,.77,1.9,3,3,0,0,1,.08.32,14.28,14.28,0,0,1,.61-1.39A21.15,21.15,0,0,1,18.74,29Zm5.6-8.75L24,9.6C24,5.34,23.37,3,22.15,3c-.43,0-.83.66-1.12,1.86a29.66,29.66,0,0,0-.51,6.42l0,7.15c.07-.05.51-.44.51-.44Z"/><path class="cls-1" d="M22.19.83a3.17,3.17,0,0,1,3.12,2q.9,2,.9,7.05l.32,14.64L27.9,26l.9,9.91A71.25,71.25,0,0,1,24.16,48v7.68a20.08,20.08,0,0,1-8.67,1.9A20.8,20.8,0,0,1,7.33,55.9V50.77A26.27,26.27,0,0,1,1,42.72a19.69,19.69,0,0,1-.18-2.15,14,14,0,0,1,.72-4.24L1,35,.9,33.76q0-5.35,3.88-5.36l.57,0a5.25,5.25,0,0,1,1.28-3,3.61,3.61,0,0,1,2.71-1,5,5,0,0,1,1.76.39,4.5,4.5,0,0,1,1.36-2.36,3.44,3.44,0,0,1,2.32-.8,3.5,3.5,0,0,1,1.81.45,3.7,3.7,0,0,1,1.31,1.35l.3-1.29.15-12.93a15.52,15.52,0,0,1,1-6.26A3.08,3.08,0,0,1,22.19.83m-2.12,18.6q.33-.36.9-.87l3.8,4.17L24.45,9.59c0-4.67-.76-7-2.3-7-.67,0-1.18.72-1.52,2.17a30,30,0,0,0-.52,6.52l0,8.15M21,38.2l-1.76-.07-.07-.83a12.85,12.85,0,0,1,1.54-6.13,15.62,15.62,0,0,1-2.33-4l0,3.26a8.5,8.5,0,0,1,.79,1.91,6.89,6.89,0,0,1,.25,1.83q0,4.13-4.77,6.57L13.5,38.27c-.5,1.58-1.86,3-4.1,4.35l-1-2.23A10,10,0,0,1,4.6,43.3L2.7,38.81a23.31,23.31,0,0,0-.26,2.37,9,9,0,0,0,.15,1.26,26.28,26.28,0,0,0,6.6,7.39v4.85a20.58,20.58,0,0,0,6.52,1.11,19.08,19.08,0,0,0,6.7-1.25V48Q26.07,38.88,27,35.8l-.79-9.12L21,21.11a5.25,5.25,0,0,0-1.4,3.58q0,3.07,3.2,6.12a13.52,13.52,0,0,0-1.87,6.78l0,.61m-5.67.11a4.46,4.46,0,0,0,2.29-4.09,5,5,0,0,0-.27-1.6A7.23,7.23,0,0,0,16.48,31V26.38a4.67,4.67,0,0,0-.41-2.2,1.34,1.34,0,0,0-1.24-.73,1.86,1.86,0,0,0-1.74,1.07,6.66,6.66,0,0,0-.59,3.18l0,3.79,2.77,6.82M10.14,40a5.62,5.62,0,0,0,2.28-4.2l-1.65-3.74,0-5.27a3,3,0,0,0-1.51-.54,1.89,1.89,0,0,0-1.69.88A5,5,0,0,0,7,29.78L7.12,33l3,7m-4.68.79a8.8,8.8,0,0,0,2.05-2.34L5.35,33.64V30.16q-2.68,0-2.69,3.34l0,1.4,2.76,5.89M22.19,0a3.87,3.87,0,0,0-3.62,2.58,16.1,16.1,0,0,0-1.05,6.61l-.14,12.4a2.92,2.92,0,0,0-.37-.24,4.4,4.4,0,0,0-2.23-.56,4.32,4.32,0,0,0-2.86,1,4.9,4.9,0,0,0-1.35,2,4.69,4.69,0,0,0-1.23-.18A4.42,4.42,0,0,0,6,24.81a5.62,5.62,0,0,0-1.37,2.76c-2.12,0-4.59,1.17-4.59,6.19v0l.08,1.25v.15l.06.13.46,1.05A14.38,14.38,0,0,0,0,40.57a19.38,19.38,0,0,0,.19,2.25V43l.06.12A26.53,26.53,0,0,0,6.5,51.13v5.32l.5.21a21.76,21.76,0,0,0,8.49,1.79,21,21,0,0,0,9-2l.47-.22v-8a73,73,0,0,0,4.6-12.1l0-.15v-.15l-.9-9.91,0-.28-.19-.21-1.15-1.24L27,9.87c0-3.5-.32-5.92-1-7.38A4,4,0,0,0,22.19,0ZM20.91,17.52l0-6.24A29.77,29.77,0,0,1,21.43,5c.31-1.26.65-1.53.72-1.53.71,0,1.47,1.62,1.47,6.17l.27,10.94L21.58,18,21,17.41l-.12.11Zm.85,20.05a12.82,12.82,0,0,1,1.76-6.35l.32-.57-.47-.44c-1.95-1.86-2.94-3.72-2.94-5.52a4.28,4.28,0,0,1,.64-2.29L25.37,27l.76,8.67c-.62,2.07-2.13,6.1-4.49,12l-.06.15V54a18,18,0,0,1-5.87,1A19.56,19.56,0,0,1,10,54.08V49.43l-.32-.25a26.61,26.61,0,0,1-5-5l.2-.09a10.22,10.22,0,0,0,3.24-2.18L8.65,43,9,43.8l.79-.47a11.23,11.23,0,0,0,3.61-3.11l.39.89.35.82.79-.41a11.44,11.44,0,0,0,3.49-2.62v0l.73,0,1.76.07.91,0-.05-.92,0-.58Zm-8.4-6.25,0-3.63a6.06,6.06,0,0,1,.49-2.77,1.08,1.08,0,0,1,1-.65.53.53,0,0,1,.52.32,3.75,3.75,0,0,1,.3,1.79v4.86l.14.21a6.17,6.17,0,0,1,.74,1.44,3.94,3.94,0,0,1,.24,1.33A3.68,3.68,0,0,1,15.66,37l-2.3-5.69ZM8,32.85l-.08-3.09a4,4,0,0,1,.44-2.18,1.07,1.07,0,0,1,1-.51,1.57,1.57,0,0,1,.68.2l0,4.79v.17l.08.17,1.55,3.51a5.38,5.38,0,0,1-1.12,2.72L8,32.85Zm11.7-1.47-.21-.5.27.37-.06.13ZM3.52,34.7l0-1.22c0-1.52.45-2.13,1-2.36v2.7L4.6,34l2,4.39a8.55,8.55,0,0,1-.83,1.05L3.52,34.7Z"/><path class="cls-1" d="M51.19,58a20.8,20.8,0,0,1-8.85-1.94L42.11,56V48.14A72.88,72.88,0,0,1,37.49,36l0-.08.92-10.12,1.35-1.46.32-14.49c0-3.44.31-5.8.93-7.21A3.57,3.57,0,0,1,44.5.41a3.48,3.48,0,0,1,3.24,2.34,16,16,0,0,1,1,6.44l.14,12.88.09.37a3.85,3.85,0,0,1,.9-.73,4.25,4.25,0,0,1,4.62.38,4.69,4.69,0,0,1,1.36,2.15A4.86,4.86,0,0,1,57.35,24a4.05,4.05,0,0,1,3,1.13A5.41,5.41,0,0,1,61.68,28h.23c2.85,0,4.29,1.94,4.29,5.77l-.08,1.34-.54,1.26a14.28,14.28,0,0,1,.69,4.21,20.38,20.38,0,0,1-.18,2.2v.07l0,.06A26.46,26.46,0,0,1,59.77,51v5.23l-.25.1A21.28,21.28,0,0,1,51.19,58Zm-6.5-3.79A18.49,18.49,0,0,0,51,55.38a20.16,20.16,0,0,0,6.1-1V49.63l.16-.12a26,26,0,0,0,6.46-7.22,9.38,9.38,0,0,0,.13-1.11c0-.13,0-.36-.06-.79l-1.46,3.45-.38-.16a10.07,10.07,0,0,1-3.54-2.53l-.92,2.06-.4-.24a10,10,0,0,1-3.89-3.64l-.87,2-.39-.21a9.83,9.83,0,0,1-4-3.38l-.06.76-2.58.1.06-1.06A13.15,13.15,0,0,0,43.53,31l-.17-.28.24-.22c2-1.94,3.07-3.9,3.07-5.82a4.71,4.71,0,0,0-1-3l-4.75,5.12-.77,8.89c.61,2.06,2.13,6.13,4.52,12.1l0,.07Zm15-15.83a8.73,8.73,0,0,0,1.43,1.71l2.5-5.33,0-1.31c0-2.26-1-2.79-1.86-2.89v3.13Zm-5-2.56a5.45,5.45,0,0,0,1.68,3.49l2.78-6.41.08-3.17a4.48,4.48,0,0,0-.51-2.41,1.48,1.48,0,0,0-1.34-.7,2.31,2.31,0,0,0-1.09.36l0,5.13Zm-2.83-12a.94.94,0,0,0-.88.52,4.27,4.27,0,0,0-.36,2v4.73l-.07.11a6.57,6.57,0,0,0-.79,1.53,4.54,4.54,0,0,0-.25,1.47,4,4,0,0,0,1.68,3.47l2.55-6.28,0-3.72a6.36,6.36,0,0,0-.54-3A1.46,1.46,0,0,0,51.86,23.86Zm-5.37,7.35a12.89,12.89,0,0,1,.61,1.38c0-.1,0-.21.08-.31a8.87,8.87,0,0,1,.78-1.9l0-1.36A19.65,19.65,0,0,1,46.49,31.21ZM44.53,3c-1.21,0-1.88,2.34-1.88,6.59l-.3,12L45.68,18l.52.44,0-7.15a29.66,29.66,0,0,0-.51-6.42C45.37,3.66,45,3,44.53,3Z"/><path class="cls-1" d="M44.5.83a3.1,3.1,0,0,1,2.87,2.1,15.7,15.7,0,0,1,1,6.26l.14,12.93.31,1.29a3.68,3.68,0,0,1,1.3-1.35,3.55,3.55,0,0,1,1.81-.45,3.47,3.47,0,0,1,2.33.8,4.57,4.57,0,0,1,1.36,2.36,5,5,0,0,1,1.76-.39,3.63,3.63,0,0,1,2.71,1,5.25,5.25,0,0,1,1.27,3l.58,0q3.87,0,3.87,5.36L65.71,35l-.57,1.32a14,14,0,0,1,.72,4.24,19.69,19.69,0,0,1-.18,2.15,26.43,26.43,0,0,1-6.32,8.05V55.9a20.85,20.85,0,0,1-8.17,1.72,20.11,20.11,0,0,1-8.67-1.9V48A72.11,72.11,0,0,1,37.89,35.9l.9-9.91,1.36-1.47.32-14.64q0-5,.9-7a3.17,3.17,0,0,1,3.13-2m-2.59,21.9,3.81-4.17a10.77,10.77,0,0,1,.89.87l0-8.15a30.66,30.66,0,0,0-.52-6.52c-.35-1.45-.86-2.17-1.53-2.17q-2.3,0-2.3,7l-.32,13.14M51,55.79a20.52,20.52,0,0,0,6.51-1.11V49.83a26.32,26.32,0,0,0,6.61-7.39,10.28,10.28,0,0,0,.14-1.26A22.22,22.22,0,0,0,64,38.81l-1.9,4.49a9.93,9.93,0,0,1-3.81-2.91l-1,2.23q-3.35-2-4.1-4.35l-1.07,2.52q-4.78-2.45-4.78-6.57a7.32,7.32,0,0,1,.25-1.83,8.5,8.5,0,0,1,.79-1.91l0-3.26a16,16,0,0,1-2.34,4,12.86,12.86,0,0,1,1.55,6.13l-.07.83-1.76.07,0-.61a13.51,13.51,0,0,0-1.86-6.78q3.2-3,3.19-6.12a5.25,5.25,0,0,0-1.4-3.58l-5.17,5.57-.79,9.12q.9,3.08,4.56,12.2v6.54A19,19,0,0,0,51,55.79m.41-17.48,2.76-6.82,0-3.79a6.78,6.78,0,0,0-.59-3.18,1.88,1.88,0,0,0-1.74-1.07,1.32,1.32,0,0,0-1.24.73,4.53,4.53,0,0,0-.42,2.2V31a6.79,6.79,0,0,0-.83,1.63,4.78,4.78,0,0,0-.28,1.6,4.47,4.47,0,0,0,2.3,4.09M56.54,40l3-7,.09-3.25a4.94,4.94,0,0,0-.58-2.65,1.87,1.87,0,0,0-1.69-.88,2.92,2.92,0,0,0-1.5.54l0,5.27L54.26,35.8A5.62,5.62,0,0,0,56.54,40m4.69.79L64,34.9l0-1.4q0-3.34-2.7-3.34v3.48l-2.15,4.81a8.8,8.8,0,0,0,2,2.34M44.5,0a4,4,0,0,0-3.88,2.49c-.66,1.46-1,3.88-1,7.39l-.32,14.31-1.15,1.24-.19.21,0,.28-.89,9.91,0,.15,0,.15a73.89,73.89,0,0,0,4.6,12.1v8l.48.22a21,21,0,0,0,9,2,21.72,21.72,0,0,0,8.49-1.79l.51-.21V51.13a26.85,26.85,0,0,0,6.24-8.06l0-.12,0-.13a22,22,0,0,0,.19-2.25A14.72,14.72,0,0,0,66,36.38l.45-1.05.06-.13v-.15l.07-1.25v0c0-5-2.47-6.15-4.59-6.19a5.62,5.62,0,0,0-1.37-2.76,4.42,4.42,0,0,0-3.3-1.26,4.7,4.7,0,0,0-1.24.18,4.9,4.9,0,0,0-1.35-2,4.3,4.3,0,0,0-2.86-1,4.36,4.36,0,0,0-2.22.56,3,3,0,0,0-.38.24L49.17,9.18a16.25,16.25,0,0,0-1.05-6.6A3.88,3.88,0,0,0,44.5,0ZM42.79,20.53l.27-10.92c0-4.57.76-6.19,1.47-6.19.07,0,.42.27.72,1.53a29.63,29.63,0,0,1,.5,6.33l0,6.24-.13-.11L45.1,18l-2.31,2.53ZM41.31,27l4.3-4.64a4.28,4.28,0,0,1,.64,2.29c0,1.8-1,3.66-2.94,5.52l-.47.44.33.57a12.7,12.7,0,0,1,1.75,6.35l0,.58,0,.92.91,0L47.51,39l.73,0v0a11.32,11.32,0,0,0,3.49,2.62l.79.41.35-.82.38-.89a11.45,11.45,0,0,0,3.61,3.11l.8.47L58,43l.48-1.08a10.27,10.27,0,0,0,3.25,2.18l.2.09a27,27,0,0,1-5,5l-.32.25v4.65A19.44,19.44,0,0,1,51,55a17.94,17.94,0,0,1-5.87-1V47.84l-.06-.15c-2.36-5.88-3.87-9.91-4.49-12L41.31,27ZM51,37a3.67,3.67,0,0,1-1.1-2.79,4.18,4.18,0,0,1,.23-1.33,6.17,6.17,0,0,1,.74-1.44l.14-.21V26.38a3.7,3.7,0,0,1,.31-1.79.52.52,0,0,1,.52-.32,1.07,1.07,0,0,1,1,.65,6,6,0,0,1,.49,2.78l0,3.62L51,37Zm5.69-9.74a1.57,1.57,0,0,1,.67-.2,1.09,1.09,0,0,1,1,.51,4.08,4.08,0,0,1,.44,2.2l-.08,3.07-2.51,5.78a5.46,5.46,0,0,1-1.11-2.72l1.55-3.51.07-.17v-.17l0-4.79Zm-9.73,4,.27-.37c-.08.17-.15.34-.21.5L47,31.25Zm13.14,7.12,2-4.39.07-.16v-2.7c.59.23,1,.85,1,2.38l0,1.2L61,39.42a9.62,9.62,0,0,1-.83-1.05Z"/></g></g></svg>