<svg xmlns="http://www.w3.org/2000/svg" viewBox="0 0 85.18 58.74"><defs><style>.cls-1{fill:#010101;}</style></defs><title>Asset 8</title><g id="Layer_2" data-name="Layer 2"><g id="Crop_Marks" data-name="Crop Marks"><g id="Layer_1-2" data-name="Layer 1-2"><path class="cls-1" d="M85.15,5.73q-.06.42-.15.81A12.62,12.62,0,0,1,83.59,10a34.77,34.77,0,0,1-4.31,5.69,92.58,92.58,0,0,1-9.48,8.8l-.16.13A156,156,0,0,1,49.16,38.5l-.31.18c-2.69,1.56-5.41,3-8.16,4.4a112.08,112.08,0,0,1-14,5.83q-3.25,1.1-6.55,2c-1.68.43-3.37.82-5.08,1.14a40.07,40.07,0,0,1-6,.75,21.2,21.2,0,0,1-3.17-.1,8.64,8.64,0,0,1-3.48-1.12A5.16,5.16,0,0,1,.54,49.45a4.85,4.85,0,0,1-.35-1A6.5,6.5,0,0,1,.07,46a11,11,0,0,1,1.77-4.22,21.6,21.6,0,0,1,2.22-2.86c.77-.87,1.57-1.65,2.37-2.42a81.23,81.23,0,0,1,10.06-7.88q1.83-1.25,3.68-2.42V14.5H15.39V0h25.3V17.28c-1,.53-2.07,1.09-3.1,1.66-5.86,3.23-11.69,6.55-17.42,10.24v-.51c-.9.7-1.79,1.42-2.67,2.15-.19.16-.38.31-.56.48a84.55,84.55,0,0,0-8.65,8.19,31.52,31.52,0,0,0-3.77,5,6.91,6.91,0,0,0-.9,2.31c0,.22,0,.17,0,.13l.35.23a4.92,4.92,0,0,0,.59.22,7.49,7.49,0,0,0,1.58.2,14.79,14.79,0,0,0,2.63-.14,35.23,35.23,0,0,0,5.47-1.18c2-.56,3.94-1.25,5.9-2V31.64A135.35,135.35,0,0,1,37.92,19.92c.92-.52,1.84-1,2.77-1.5V38q3-1.47,5.92-3l2.55-1.37V14.5h-.42c3.62-1.65,7.29-3.16,11-4.44A85.64,85.64,0,0,1,69.8,7.16V17.83A75.76,75.76,0,0,0,77,11.94a29,29,0,0,0,4-4.57c.11-.15.21-.32.31-.49a6.59,6.59,0,0,0,.81-1.8,1.35,1.35,0,0,0,0-.45c0-.12-.22-.32-.46-.53a5.82,5.82,0,0,0-2.32-.74,14.64,14.64,0,0,0-2.74-.12c-.45,0-.91,0-1.36.09h0A41.67,41.67,0,0,0,71,4l-1.19.23v.43A109.53,109.53,0,0,0,59.34,8.36q-5.54,2.33-11,5c-.78.38-1.57.77-2.35,1.17H44.5V0H69.8V1.64c.27-.09.55-.17.82-.24A37.43,37.43,0,0,1,76.48.17,18.31,18.31,0,0,1,79.55,0a7.57,7.57,0,0,1,3.33.8A4.43,4.43,0,0,1,84.64,2.6,5.75,5.75,0,0,1,85.15,5.73Z"/><path class="cls-1" d="M40.69,46.06V58.74H20.17v-4.9c2.2-.56,4.38-1.22,6.55-2A112.08,112.08,0,0,0,40.69,46.06Z"/><path class="cls-1" d="M69.8,27.44v31.3H49.16V41.49A157,157,0,0,0,69.64,27.57Z"/></g></g></g></svg>