<svg xmlns="http://www.w3.org/2000/svg" viewBox="0 0 67.1 57.94"><title>Asset 13</title><g id="Layer_2" data-name="Layer 2"><g id="Crop_Marks" data-name="Crop Marks"><path d="M66.37,13.89,52.9,2.65a2.08,2.08,0,0,0-.8-.36C49.17,1.56,46.23.85,43.3.13c-1.25-.31-1.6-.13-2,1.09A8.12,8.12,0,0,1,33.51,7a8.18,8.18,0,0,1-7.7-5.73C25.42.05,25.05-.17,23.86.12L14.91,2.3a2,2,0,0,0-.72.35L.61,14c-.74.62-.8,1.1-.23,1.95,2.13,3.21,4.28,6.4,6.37,9.62a2.09,2.09,0,0,0,2,1.06c1.67-.06,3.34,0,5.11,0v1q0,14.38,0,28.79c0,1.26.33,1.58,1.61,1.58H51.43c1.49,0,1.8-.31,1.8-1.8q0-14.05,0-28.12V26.65l.82,0c1.52,0,3.05,0,4.57,0a1.66,1.66,0,0,0,1.56-.82c2.16-3.27,4.35-6.53,6.51-9.8C67.31,15.05,67.24,14.61,66.37,13.89ZM32.9,39.75H24.45V25.54h-2V20.88H32.9Zm11.19,0h-8.5V25.54H33.67V20.88H44.09Z"/></g></g></svg>