<svg xmlns="http://www.w3.org/2000/svg" viewBox="0 0 59.96 59.91"><defs><style>.cls-1{fill:#010101;}</style></defs><title>Asset 5</title><g id="Layer_2" data-name="Layer 2"><g id="Crop_Marks" data-name="Crop Marks"><path class="cls-1" d="M59.59,28.26c-.23-.48-.76-.79-1.19-1.24a8.5,8.5,0,0,0-1.3-1.09c-.44-.31-1-.51-1.5-.81s-.9-.67-1.46-.92-1.06-.33-1.63-.54-1-.54-1.57-.72-1-.59-1.6-.74c-.17,0-.51.13-.58,0s.27-.21.4-.43c.3-.51.21-1.22.47-1.72s.87-.87,1.1-1.37.4-1.13.6-1.64.43-1.11.59-1.63A13.18,13.18,0,0,0,52,13.63a12,12,0,0,0,.43-1.69,6.19,6.19,0,0,0-.25-1.74,3.89,3.89,0,0,0-1.11-1.34A3.5,3.5,0,0,0,49.66,8,5,5,0,0,0,48,7.56a8.38,8.38,0,0,0-1.77-.11c-.53.09-1,.55-1.62.72a17,17,0,0,0-1.73.3c-.51.2-.89.78-1.44,1s-1,.52-1.52.8-1,.45-1.56.75c-.16.09-.5.29-.68.21s0-.52,0-.69c-.15-.57-.65-1-.81-1.57s-.24-1.15-.43-1.67-.33-1.14-.55-1.65-.4-1.13-.66-1.61a13.35,13.35,0,0,0-1.07-1.39,8.39,8.39,0,0,0-1.31-1.12A5.61,5.61,0,0,0,31.59.45,3.55,3.55,0,0,0,30,.07a3.9,3.9,0,0,0-1.8.07c-.48.23-.83.82-1.28,1.25A9.94,9.94,0,0,0,25.75,2.7,13.43,13.43,0,0,0,24.7,4.1c-.26.48-.42,1.05-.66,1.61s-.12,1.16-.33,1.72-.77.93-.95,1.51-.29,1.1-.44,1.67c-.05.18-.1.19-.27.26s-.38.51-.6.38c-.51-.3-.82-.92-1.31-1.18S19,9.66,18.53,9.42,17.43,9,16.92,8.8s-1.16-.22-1.68-.38-1.08-.51-1.61-.6a11.56,11.56,0,0,0-1.71-.4,5.66,5.66,0,0,0-1.7.44C9.66,8.06,9.37,8.58,9,9a3.16,3.16,0,0,0-.82,1.35c-.18.51-.62,1-.64,1.6a9.44,9.44,0,0,0,0,1.76,17.63,17.63,0,0,0,.7,1.62c.15.52.49,1,.71,1.57s.41,1,.66,1.58.29,1.11.57,1.64.29,1.14.59,1.65c.13.22.16.22.12.32s-.13.12-.29.17c-.58.15-1,.82-1.52,1s-1.13.29-1.65.48-1.14.28-1.65.5-1,.59-1.49.84a14.81,14.81,0,0,0-1.46.88A8.25,8.25,0,0,0,1.48,27a5.22,5.22,0,0,0-1,1.38A3.6,3.6,0,0,0,.08,30a4,4,0,0,0,.06,1.78,6,6,0,0,0,1,1.48,12.05,12.05,0,0,0,1.54.9c.44.31,1,.53,1.51.83s1,.53,1.53.78.94.7,1.5.9,1.12.25,1.69.42,1.05.46,1.63.61c.17.05.35,0,.42.15s.35.44.23.65c-.3.52-.67,1-.93,1.46S9.86,41,9.62,41.5s-.77,1-1,1.46-.37,1.13-.52,1.65a17,17,0,0,0-.66,1.64c-.1.61.29,1.23.3,1.76A5.09,5.09,0,0,0,8,49.67a3.41,3.41,0,0,0,.88,1.39c.4.4.69,1.06,1.26,1.25s1.16-.25,1.79-.24,1.13.45,1.74.34,1-.65,1.58-.82,1.23.12,1.8-.1.82-.92,1.37-1.17S19.48,50,20,49.67s1.2-.18,1.72-.47c.16-.1.1-.07.28,0s.54-.17.6,0c.15.58.27,1.14.43,1.67s.16,1.18.35,1.7.47,1.09.69,1.59.45,1.11.71,1.59a14,14,0,0,0,.94,1.45,10.61,10.61,0,0,0,.95,1.51,6.28,6.28,0,0,0,1.49,1c.54.26,1.21,0,1.78,0a3.64,3.64,0,0,0,1.65-.3,5.47,5.47,0,0,0,1.62-.74c.39-.37.38-1.15.74-1.66a13.28,13.28,0,0,0,.84-1.47,17,17,0,0,0,.88-1.48c.22-.5.79-.9,1-1.47s-.12-1.23.06-1.8.39-1.06.54-1.64c0-.17.39-.17.57-.24a.4.4,0,0,1,.41,0c.49.29,1.13.33,1.65.61s1,.67,1.47.91,1.09.39,1.62.6,1.14.25,1.68.41a15.47,15.47,0,0,0,1.65.43,10.85,10.85,0,0,0,1.69.48,5.32,5.32,0,0,0,1.71-.36,4,4,0,0,0,1.53-.88c.42-.42.42-1.07.62-1.61A5.45,5.45,0,0,0,52.38,48,9.32,9.32,0,0,0,52,46.32a12.46,12.46,0,0,0-.49-1.63c-.16-.54.17-1.27-.05-1.81s-.56-1-.8-1.55S50.3,40.21,50,39.7s-1-.76-1.31-1.25c-.12-.21.2-.51.24-.61s.14-.33.31-.37c.58-.16,1.21-.08,1.74-.24s1-.82,1.49-1,1.11-.36,1.62-.58,1.14-.33,1.62-.59a17,17,0,0,0,1.59-.75,8.79,8.79,0,0,0,1.29-1.19,5.27,5.27,0,0,0,.77-1.56A3.82,3.82,0,0,0,60,30,3.92,3.92,0,0,0,59.59,28.26Zm-2,3.2a5.8,5.8,0,0,1-1,1.34,16.41,16.41,0,0,1-1.51.74c-.46.24-1,.48-1.49.72s-1.12.08-1.66.28-.92.62-1.47.79-1,.3-1.59.44a2.55,2.55,0,0,0-1.71,1.31,2.63,2.63,0,0,0,.24,2.17c.29.49.85.81,1.1,1.28s.13,1.19.36,1.67.48,1,.67,1.49A14.84,14.84,0,0,1,50,45.25c.17.57.75,1,.83,1.51s-.28,1.2-.34,1.68A2.53,2.53,0,0,1,50,50a2.57,2.57,0,0,1-1.5.73,5.76,5.76,0,0,1-1.71.14,14.89,14.89,0,0,1-1.59-.57c-.49-.15-.92-.57-1.47-.79s-1-.26-1.57-.5-1.11-.2-1.62-.47-1-.51-1.46-.8-1.25-.74-1.93-.46a2.6,2.6,0,0,0-1.53,1.55s.3.08.3.09c-.15.55-.15,1.13-.3,1.64s-.36,1.07-.54,1.57-.62,1-.83,1.46-.73.89-1,1.34a11.79,11.79,0,0,1-.77,1.43,5.8,5.8,0,0,1-1.16,1.09c-.5.39-.86,1.08-1.36,1.09a3.16,3.16,0,0,1-1.64-.72,7.26,7.26,0,0,1-1.05-1.33,10,10,0,0,1-1-1.35c-.25-.45-.48-1-.71-1.5s-.37-1-.56-1.57-.39-1-.56-1.56-.25-1.06-.39-1.6a2.56,2.56,0,0,0-1.15-1.8,2.91,2.91,0,0,0-2.31.13c-.49.29-.82.83-1.29,1.07s-1,.6-1.44.82-1.05.43-1.53.62a15.55,15.55,0,0,1-1.65.26,12,12,0,0,1-1.56.49,5.53,5.53,0,0,1-1.61-.08c-.63-.08-1.16-.09-1.5-.44a2.66,2.66,0,0,1-.95-1.44,6.64,6.64,0,0,1,.15-1.71,11,11,0,0,1,.26-1.67c.14-.49.63-.92.84-1.47s.37-1,.62-1.53.7-.86,1-1.36.13-1.17.42-1.66a2,2,0,0,0,.17-1.9,2.08,2.08,0,0,0-.5-.71c-.28-.28-.51-.64-.91-.75-.55-.14-1-.53-1.51-.69S8.5,34.75,8,34.57s-1.2,0-1.68-.24-1-.57-1.44-.82-.8-.85-1.2-1.15S2.44,32,2.15,31.6A3,3,0,0,1,1.45,30a3,3,0,0,1,.77-1.58c.3-.38.95-.48,1.45-.85s.59-1,1.12-1.32,1-.43,1.53-.66S7.42,25.4,8,25.2s1-.32,1.58-.49,1-.56,1.51-.71a2.19,2.19,0,0,0,1.59-1.21,2.25,2.25,0,0,0-.22-2c-.29-.49-.71-.9-1-1.37s-.49-1-.71-1.51-.14-1.16-.33-1.65a15.81,15.81,0,0,1-.59-1.53,10.92,10.92,0,0,1-.3-1.61c-.09-.62-.44-1.18-.38-1.65A2.57,2.57,0,0,1,10,10a2.54,2.54,0,0,1,1.44-.84,6.37,6.37,0,0,1,1.71,0c.49.07.91.73,1.49.9s1,.2,1.58.41.92.54,1.44.79,1.21,0,1.72.25.8.78,1.3,1.07a2.38,2.38,0,0,0,2.07.07,2.56,2.56,0,0,0,1.59-1.47c.15-.55-.17-1.21,0-1.72s.41-1.06.59-1.55.57-1,.78-1.48A14.94,14.94,0,0,1,26.61,5a12,12,0,0,1,.82-1.41c.37-.5.54-1.11.92-1.4A2.51,2.51,0,0,1,30,1.79a2.38,2.38,0,0,1,1.46.61,5.42,5.42,0,0,1,1.31,1,10.74,10.74,0,0,1,.9,1.41c.25.45.59.92.83,1.45s.24,1.07.44,1.62.45,1,.62,1.54.13,1.09.28,1.64A2.56,2.56,0,0,0,37,12.85a2.52,2.52,0,0,0,2.09-.48c.49-.29,1.17-.2,1.64-.45S41.56,11,42,10.8s1.18-.12,1.67-.31,1-.48,1.52-.63a10.86,10.86,0,0,1,1.59-.34,8.12,8.12,0,0,1,1.66-.35,2.43,2.43,0,0,1,1.38.92,2.26,2.26,0,0,1,.58,1.42,5.91,5.91,0,0,1,.19,1.64,11.13,11.13,0,0,1-.36,1.62c-.15.49-.47,1-.68,1.51s-.62.88-.87,1.4-.16,1.11-.43,1.62-.75.81-1,1.3a2.42,2.42,0,0,0,.18,2.1A2,2,0,0,0,48.88,24c.54.14,1,.39,1.56.55s1.14.16,1.64.34.86.89,1.34,1.1,1.18.15,1.63.4a11.5,11.5,0,0,1,1.33,1,5.58,5.58,0,0,1,1.12,1.19A2.13,2.13,0,0,1,58,30,2.19,2.19,0,0,1,57.57,31.46Z"/><path class="cls-1" d="M42,36.56c0,.83-.1.83-.1,1.65s-.06.83-.06,1.65c0,.12,0,.22-.17.22-.89,0-.89-.07-1.79-.07s-.89.14-1.78.14-.9-.12-1.79-.12-.89.13-1.78.13-.89-.11-1.79-.11a.18.18,0,0,1-.13-.06s0-.08,0-.13c0-.82-.1-.82-.1-1.63V36.6c0-.82.11-.82.12-1.64s0-.81,0-1.63V30.07c0-.81,0-.81,0-1.63s.06-.82.06-1.63.49-1.06-.11-1.61-.86-.05-1.75-.05a.22.22,0,0,1-.24-.19c0-.82.12-.82.12-1.63s-.21-.82-.21-1.64,0-.81,0-1.63c0-.12.19-.12.31-.12.78,0,.78-.12,1.56-.12s.78.05,1.56.05.78,0,1.56,0,.78-.16,1.56-.16.78.14,1.56.14.78-.12,1.56-.12H41.7c.12,0,.2.18.2.3,0,.83,0,.83,0,1.66s.12.82.12,1.65V25c0,.82,0,.82,0,1.65s-.06.82-.06,1.65,0,.82,0,1.65-.09.82-.09,1.65,0,.82,0,1.65,0,.82,0,1.65S42,35.74,42,36.56Z"/><path class="cls-1" d="M29.34,40.07c-.53.56-.76.11-1.54.11H26.25c-.77,0-.77,0-1.55,0S23.93,40,23.15,40s-.77.11-1.54.11A7.24,7.24,0,0,1,20.07,40c-.11,0,.06,0,.06-.14,0-.82-.15-.82-.15-1.63s0-.82,0-1.63.09-.82.09-1.64S20,34.15,20,33.33s0-.81,0-1.63.19-.81.19-1.63S20,29.26,20,28.44s0-.82,0-1.63.62-1.08,0-1.58c-.81-.64-1.31.69-2.09,0s0-1,0-1.85,0-.89,0-1.78-.5-1.1.1-1.76.79,0,1.61,0,.81-.07,1.62-.07.81.13,1.62.13.82-.14,1.63-.14h1.62c.81,0,.81,0,1.62,0a8.07,8.07,0,0,1,1.63,0c.11,0,0,.13,0,.24,0,.84,0,.84,0,1.67s.09.84.09,1.67-.1.84-.1,1.67.07.84.07,1.67,0,.84,0,1.67.1.83.1,1.67-.17.83-.17,1.67,0,.83,0,1.66,0,.84,0,1.67,0,.84,0,1.67.06.83.06,1.67S29.91,39.46,29.34,40.07Z"/></g></g></svg>