<svg xmlns="http://www.w3.org/2000/svg" viewBox="0 0 119.9 58.94"><defs><style>.cls-1,.cls-2{fill:#1d1d1b;}.cls-2{stroke:#1d1d1b;stroke-miterlimit:10;}</style></defs><title>Asset 12</title><g id="Layer_2" data-name="Layer 2"><g id="Crop_Marks" data-name="Crop Marks"><path class="cls-1" d="M114.84,40l2.67,5.57a17.87,17.87,0,0,1,2,7.79v4.29H60.06V53.38a17.9,17.9,0,0,1,2-7.79L64.69,40Zm-1.22,1.85H65.76L63.4,47a13.36,13.36,0,0,0-1.5,5.24v3.63h55.72v-1.4a18,18,0,0,0-1.72-7.54ZM114.84,2V38.18H64.69V2ZM113,3.83H66.53V36.34H113Zm-44.62,25V11.39c0-2.56.32-4.15.95-4.78s2.24-.94,4.86-.94h31.17c2.61,0,4.23.32,4.86.94s.94,2.22.94,4.78V28.78q0,3.79-1,4.74c-.64.62-2.26.94-4.84.94H74.18c-2.59,0-4.2-.32-4.85-.94S68.37,31.31,68.37,28.78Zm.27,15.42h4.62V46H78V44.2h4.56V46h4.7V44.2h4.59V46h4.7V44.2h4.59V46h4.67V44.2h4.63V46h-4.59V48h4.59v1.77h-4.63V48h-4.67v1.77H96.55V48H91.81v1.77H87.26V48h-4.7v1.77H78V48H73.26v1.77H68.64V47.89h4.59V46H68.64Zm1.58-32.8V28.73q0,2.61.66,3.24c.44.43,1.54.64,3.29.64h31.07c1.81,0,2.94-.2,3.39-.62s.68-1.46.68-3.15V11.32c0-1.68-.24-2.73-.7-3.16s-1.59-.64-3.37-.64H74.17c-1.75,0-2.85.21-3.29.62S70.22,9.64,70.22,11.4Zm7.71,36.49h4.63V46.12H77.93Zm9.33,0h4.59V46.12H87.26Zm9.29,0h4.59V46.12H96.55Z"/><path class="cls-1" d="M119.9,58.1H59.62V53.38a18.58,18.58,0,0,1,2-8l2.79-5.81h50.7l2.79,5.81a18.3,18.3,0,0,1,2,8Zm-59.41-.86H119V53.38a17.45,17.45,0,0,0-1.91-7.6l-2.56-5.32H65l-2.55,5.32a17.61,17.61,0,0,0-1.92,7.6Zm57.57-1H61.47V52.2A13.67,13.67,0,0,1,63,46.78l2.48-5.35H113.9l2.4,5.28a18.64,18.64,0,0,1,1.76,7.72Zm-55.72-.87h54.85v-1a17.75,17.75,0,0,0-1.68-7.36l-2.17-4.77H66l-2.24,4.84a13.18,13.18,0,0,0-1.45,5.06Zm48.53-5.23h-5.5V48.4h-3.79v1.76H96.12V48.4H92.25v1.76H86.83V48.4H83v1.76H77.57V48.4H73.7v1.76H68.2V47.45h4.59v-1H68.2V43.77h5.5v1.84h3.87V43.77H83v1.84h3.84V43.77h5.45v1.84h3.84V43.77h5.46v1.84h3.79V43.77h5.5v2.71h-4.59v1.05h4.59Zm-4.63-.86H110v-.9h-3.76ZM97,49.3h3.72v-1H97Zm-9.3,0h3.69v-1H87.69Zm-9.25,0h3.68v-1H78.44Zm-9.37,0h3.76v-1H69.07Zm32.51-1.77h3.83V46.48h-3.83Zm-9.3,0h3.84V46.48H92.28Zm-9.29,0h3.84V46.48H83Zm-9.33,0H77.5V46.48H73.66ZM97,47.45h3.72v-.9H97Zm-9.3,0h3.73v-.9H87.69Zm-9.33,0h3.76v-.9H78.36ZM97,45.69h3.72V44.63H97Zm-9.3,0h3.73V44.63H87.69Zm-9.25,0h3.68V44.63H78.44Zm27.8-.08H110v-1h-3.76Zm-37.17,0h3.76v-1H69.07Zm46.2-7h-51V1.55h51Zm-50.15-.86H114.4V2.42H65.12Zm48.31-1H66.1V3.4h47.33ZM67,35.9h45.6V4.27H67Zm38.39-1H74.18c-2.77,0-4.41-.34-5.15-1.06s-1.09-2.37-1.09-5V11.39c0-2.74.34-4.35,1.07-5.08s2.37-1.07,5.17-1.07h31.17c2.79,0,4.43.34,5.16,1.07s1.07,2.38,1.07,5.08V28.78c0,2.68-.35,4.33-1.09,5S108.12,34.89,105.35,34.89ZM74.18,6.11c-3.09,0-4.19.44-4.56.81s-.81,1.45-.81,4.47V28.78c0,3,.45,4,.83,4.43s1.47.81,4.54.81h31.17c3.06,0,4.16-.44,4.54-.81s.83-1.44.83-4.43V11.39c0-3-.45-4.1-.82-4.47s-1.46-.81-4.55-.81Zm31.06,26.94H74.17c-1.92,0-3.06-.25-3.6-.77s-.79-1.65-.79-3.55V11.4c0-1.93.26-3.06.8-3.58s1.68-.74,3.59-.74h31.07c1.94,0,3.1.24,3.66.76s.84,1.63.84,3.48V28.84c0,1.86-.26,3-.82,3.47S107.2,33.05,105.24,33.05ZM74.17,8c-2.14,0-2.8.32-3,.51s-.52.81-.52,2.94V28.73c0,2.1.33,2.74.53,2.93s.85.52,3,.52h31.07c2.21,0,2.89-.32,3.1-.51s.53-.8.53-2.83V11.32c0-2-.35-2.65-.55-2.84s-.9-.53-3.08-.53Z"/><path class="cls-2" d="M14,17.31Q5.52,15.89,5.51,7.94V7A7.17,7.17,0,0,0,1.89.61c4.85.28,8.65,1.63,11.37,4.05a13.63,13.63,0,0,1,4.41,10l12.21,9.55q4.88,3.81,9.8,12.76L46,48.35q4.13,7.45,4.13,8.47,0,1.62-1.56,1.62c-.84,0-2.24-.83-4.18-2.49q-1.3-1.11-2.79-2.34Q40.3,52.53,39.74,52l-8.65-7.93Q23.22,37,20.58,31.36Zm5.55,8.13a8.64,8.64,0,0,0,4.68-3.66l-7.38-5.92a1.71,1.71,0,0,1-1.33,1.08Zm1.7,4.12.28.57q2.49,5.67,12.5,14.71l7.31,6.61q2.46,2.25,5.74,4.89l.87.75.65-.57A24.81,24.81,0,0,0,47,53.4q-.9-1.56-2.26-4l-4.4-8Q33.27,28.48,28.39,24.9L28,24.57A11.23,11.23,0,0,1,21.29,29.56Z"/></g></g></svg>