<svg xmlns="http://www.w3.org/2000/svg" viewBox="0 0 53.47 62.31"><title>Asset 10</title><g id="Layer_2" data-name="Layer 2"><g id="Crop_Marks" data-name="Crop Marks"><path d="M16.63,62.31c.31-.38.64-.76.93-1.16a3.29,3.29,0,0,0,.3-.63c-.87-.26-1.72-.51-2.56-.78A2.93,2.93,0,0,1,13,57c-.06-1.62,0-3.23,0-4.85,0-5.49,0-11,0-16.48,0-3.08,0-6.16-.08-9.23A17.91,17.91,0,0,0,12.43,23a5.1,5.1,0,0,0-.89-1.69,1.07,1.07,0,0,0-.8-.23c-1.05.09-2.1.22-3.14.39-1.49.24-3,.55-4.44.8a2.25,2.25,0,0,1-2.59-1,4.18,4.18,0,0,1-.4-1.54C.08,18.14.09,16.49,0,14.84a1.61,1.61,0,0,1,1.29-1.68c.77-.26,1.55-.49,2.33-.72a17.07,17.07,0,0,0,4.46-1.89C9.1,9.87,10,9.08,11,8.33a11.68,11.68,0,0,0,.89-.82c.63-.65,1.24-1.31,1.88-1.95A5.69,5.69,0,0,1,17.55,4a22,22,0,0,1,5.38.39,2.66,2.66,0,0,1,2,1.45,6.22,6.22,0,0,1,.58,2.79c0,3.7-.05,7.4-.07,11.1q-.06,7.72-.11,15.45c0,1.84,0,3.67,0,5.51.06,4.61.14,9.22.21,13.83a25.41,25.41,0,0,1,0,2.76,3.41,3.41,0,0,1-2.69,2.89,13.5,13.5,0,0,1-3.75.42c-.55,0-.55,0-.66.46,0,.07,0,.14-.05.21-.09.25,0,.43.26.58s.47.17.31.44Zm1.55-32.82c-.24-.32.08-.47.13-.68a22.39,22.39,0,0,0,.54-2.66A27.47,27.47,0,0,0,19,23.28c0-1.33,0-2.66,0-4s-.09-2.64-.14-4a26.56,26.56,0,0,0-.65-5.39,3.45,3.45,0,0,0-1-1.8,1.73,1.73,0,0,0-1.66-.43,2.41,2.41,0,0,0-1.28.87A20.69,20.69,0,0,1,11,11.65a14.58,14.58,0,0,1-5.67,2.48l-1.78.35c-.23,0-.37.17-.34.38a1.79,1.79,0,0,0,1.15,1.19,4,4,0,0,0,2.8-.23c1.13-.45,2.19-1,3.28-1.55a9,9,0,0,1,2.47-.81,1.94,1.94,0,0,1,2.16.95,10.05,10.05,0,0,1,1.14,3.14c.22,1.05.39,2.1.51,3.16.19,1.72.32,3.44.48,5.16.05.58.1,1.15.18,1.72s.17.87.27,1.3C17.66,29.14,17.7,29.41,18.18,29.49ZM24,13.87h.13a3,3,0,0,0,.08-.41l.15-2.75c.06-1.26.13-2.52.19-3.78a5.31,5.31,0,0,0-.1-.68l-.15,0a1.87,1.87,0,0,0-.26.45,8.49,8.49,0,0,0-.22,2.56c0,.84,0,1.67,0,2.5a2,2,0,0,1,0,.73,1.5,1.5,0,0,0,.05.78A5.17,5.17,0,0,0,24,13.87Z"/><path d="M44.5,58.31c.31-.38.64-.76.93-1.16a2.79,2.79,0,0,0,.3-.63c-.87-.26-1.72-.51-2.56-.78A2.94,2.94,0,0,1,40.84,53c-.06-1.62,0-3.23,0-4.85,0-5.49,0-11,0-16.48,0-3.08,0-6.16-.08-9.23A17.91,17.91,0,0,0,40.3,19a5.26,5.26,0,0,0-.88-1.69,1.08,1.08,0,0,0-.81-.23c-1,.09-2.1.22-3.14.39-1.49.24-2.95.55-4.44.8a2.24,2.24,0,0,1-2.58-1,3.83,3.83,0,0,1-.4-1.54c-.1-1.64-.09-3.29-.17-4.94a1.59,1.59,0,0,1,1.28-1.68c.77-.26,1.55-.49,2.33-.72A17.28,17.28,0,0,0,36,6.55c1-.68,1.92-1.47,2.86-2.22a11.68,11.68,0,0,0,.89-.82c.63-.65,1.25-1.31,1.88-1.95A5.7,5.7,0,0,1,45.43,0,22,22,0,0,1,50.8.42a2.66,2.66,0,0,1,2,1.45,6.09,6.09,0,0,1,.58,2.79c0,3.7-.05,7.4-.07,11.1q-.06,7.73-.1,15.45c0,1.84,0,3.67,0,5.51.06,4.61.14,9.22.21,13.83a21.18,21.18,0,0,1,0,2.76,3.41,3.41,0,0,1-2.69,2.89,13.5,13.5,0,0,1-3.75.42c-.55,0-.55,0-.66.46,0,.07,0,.14,0,.21-.09.25,0,.43.26.58s.47.17.31.44Zm1.55-32.82c-.24-.32.08-.47.13-.68a22.39,22.39,0,0,0,.54-2.66,27.47,27.47,0,0,0,.18-2.87c0-1.33,0-2.66,0-4s-.09-2.64-.14-4a27.27,27.27,0,0,0-.64-5.39,3.47,3.47,0,0,0-1-1.8,1.73,1.73,0,0,0-1.66-.43,2.39,2.39,0,0,0-1.28.87,20.28,20.28,0,0,1-3.37,3.09,14.51,14.51,0,0,1-5.67,2.48l-1.78.35c-.23,0-.36.17-.34.38a1.79,1.79,0,0,0,1.15,1.19,4,4,0,0,0,2.8-.23c1.13-.45,2.19-1,3.28-1.55a8.91,8.91,0,0,1,2.48-.81,1.93,1.93,0,0,1,2.15.95A9.81,9.81,0,0,1,44,13.55c.22,1,.39,2.1.51,3.16.19,1.72.32,3.44.48,5.16,0,.58.1,1.15.18,1.72s.17.87.27,1.3C45.53,25.14,45.57,25.41,46.05,25.49ZM51.9,9.87H52a2.93,2.93,0,0,0,.07-.41c.06-.92.1-1.84.15-2.75.06-1.26.14-2.52.19-3.78a3.19,3.19,0,0,0-.1-.68l-.14,0a1.63,1.63,0,0,0-.27.45,8.82,8.82,0,0,0-.22,2.56c0,.84,0,1.67,0,2.5a2,2,0,0,1,0,.73,1.5,1.5,0,0,0,0,.78A5.17,5.17,0,0,0,51.9,9.87Z"/></g></g></svg>